<svg width="46" height="46" viewBox="0 0 46 46" fill="none" xmlns="http://www.w3.org/2000/svg">
<path fill-rule="evenodd" clip-rule="evenodd" d="M0 0H38.64C42.7048 0 46 3.29518 46 7.36V38.64C46 42.7048 42.7048 46 38.64 46H7.36C3.29518 46 0 42.7048 0 38.64V0Z" fill="#663399"/>
<path fill-rule="evenodd" clip-rule="evenodd" d="M22.5399 37.03H25.7139C25.7599 38.502 26.2199 39.422 27.2319 39.422C28.2439 39.422 28.6119 38.824 28.6119 37.444C28.6119 36.294 28.1059 35.65 26.8639 35.052L25.6679 34.5C23.5519 33.488 22.6779 32.246 22.6779 29.762C22.6779 27.002 24.4259 25.07 27.2779 25.07C30.1299 25.07 31.6479 27.048 31.6939 30.268H28.6119C28.6119 28.934 28.3359 28.014 27.3239 28.014C26.4039 28.014 25.9439 28.474 25.9439 29.624C25.9439 30.774 26.3579 31.234 27.4619 31.694L28.5659 32.2C30.9119 33.304 31.9239 34.73 31.9239 37.398C31.9239 40.572 30.1299 42.32 27.1859 42.32C24.2419 42.32 22.5859 40.296 22.5399 37.03ZM11.6382 37.582V29.854C11.6382 26.772 13.6162 25.116 16.6062 25.116C19.5502 25.07 21.3902 27.002 21.2982 30.268H17.8942C17.9862 29.026 17.4342 28.106 16.5142 28.152C15.3642 28.152 15.0422 28.934 15.0422 30.406V37.122C15.0422 38.548 15.5022 39.238 16.5142 39.284C17.5722 39.284 17.9862 38.226 17.8942 37.03H21.2982C21.4822 40.388 19.3662 42.366 16.3762 42.32C13.4782 42.32 11.6382 40.71 11.6382 37.582ZM36.1561 37.03H32.9361C32.9821 40.296 34.6381 42.32 37.5821 42.32C40.5261 42.32 42.3201 40.572 42.3201 37.398C42.3201 34.73 41.3081 33.304 39.0081 32.2L37.8581 31.694C36.7541 31.234 36.3861 30.774 36.3861 29.624C36.3861 28.474 36.8001 28.014 37.7201 28.014C38.7321 28.014 39.0081 28.934 39.0541 30.268H42.1361C42.0441 27.048 40.6181 25.07 37.7201 25.07C34.8221 25.07 33.1201 27.002 33.1201 29.762C33.1201 32.246 33.9481 33.488 36.0641 34.5L37.2601 35.052C38.5481 35.65 39.0081 36.294 39.0081 37.444C39.0081 38.824 38.5941 39.422 37.6281 39.422C36.6621 39.422 36.1561 38.502 36.1561 37.03Z" fill="white"/>
</svg>
