<svg width="36" height="50" viewBox="0 0 36 50" fill="none" xmlns="http://www.w3.org/2000/svg">
<path fill-rule="evenodd" clip-rule="evenodd" d="M35.7114 9.82617L32.4843 45.9785L17.9781 50L3.51189 45.984L0.288086 9.82617H35.7114H35.7114Z" fill="#E44D26"/>
<path fill-rule="evenodd" clip-rule="evenodd" d="M17.9995 46.926L29.7212 43.6764L32.4789 12.7825H17.9995V46.926Z" fill="#F16529"/>
<path fill-rule="evenodd" clip-rule="evenodd" d="M17.9998 21.6519H11.7263L12.1317 26.193H17.9998V30.6276H8.07598L6.98597 18.407L6.87988 17.2173H17.9998V21.6519ZM8.27417 32.845H12.7259L13.0416 36.3817L17.9804 37.7153L17.9999 37.7101V42.324L17.9795 42.3296L8.89541 39.808L8.27417 32.845Z" fill="#EBEBEB"/>
<path fill-rule="evenodd" clip-rule="evenodd" d="M5.83746 0H3.58398V6.74253H5.8376V4.48474H7.89918V6.74253H10.1528V0H7.89905V2.22654H5.83746V0ZM11.1324 2.23598H13.1161H13.1164H13.1165V6.74253H15.3701V2.23598H17.3551V0H11.1324V2.23598ZM18.3426 0H20.6925L22.1379 2.36915L23.582 0H25.9328V6.74253H23.6884V3.40056L22.1379 5.79789H22.0991L20.5476 3.40056V6.74253H18.3426V0ZM29.3084 0H27.0541H27.054V6.74253H32.4777V4.5139H29.3084V0Z" fill="black"/>
<path fill-rule="evenodd" clip-rule="evenodd" d="M17.9849 21.6412V21.6411V17.2173H29.0936L28.9876 18.407L28.7854 20.6552L28.6966 21.6519H17.9849V21.6412ZM23.4453 30.6276H17.9845V26.193H28.2927L28.1845 27.3838L27.1423 39.0588L27.0756 39.808L17.9844 42.3276V37.714L22.9304 36.379L23.4453 30.6276Z" fill="white"/>
</svg>
