<svg width="311" height="131" viewBox="0 0 311 131" fill="none" xmlns="http://www.w3.org/2000/svg">
<mask id="path-1-outside-1_13_75" maskUnits="userSpaceOnUse" x="176" y="1" width="135" height="130" fill="black">
<rect fill="white" x="176" y="1" width="135" height="130"/>
<path d="M242.24 120L299 64.5L242.24 9L231.74 9.00003V16.5L281 64.5L231.74 112L242.24 120Z"/>
<path d="M251 9.00003H265.5L204.5 120H190L251 9.00003Z"/>
</mask>
<path d="M242.24 120L299 64.5L242.24 9L231.74 9.00003V16.5L281 64.5L231.74 112L242.24 120Z" fill="#527AF8" style="fill:#527AF8;fill:color(display-p3 0.3216 0.4784 0.9725);fill-opacity:1;"/>
<path d="M251 9.00003H265.5L204.5 120H190L251 9.00003Z" fill="#527AF8" style="fill:#527AF8;fill:color(display-p3 0.3216 0.4784 0.9725);fill-opacity:1;"/>
<path d="M242.24 120L299 64.5L242.24 9L231.74 9.00003V16.5L281 64.5L231.74 112L242.24 120Z" stroke="#0E2F73" style="stroke:#0E2F73;stroke:color(display-p3 0.0549 0.1843 0.4510);stroke-opacity:1;" stroke-width="16" mask="url(#path-1-outside-1_13_75)"/>
<path d="M251 9.00003H265.5L204.5 120H190L251 9.00003Z" stroke="#0E2F73" style="stroke:#0E2F73;stroke:color(display-p3 0.0549 0.1843 0.4510);stroke-opacity:1;" stroke-width="16" mask="url(#path-1-outside-1_13_75)"/>
<mask id="path-2-outside-2_13_75" maskUnits="userSpaceOnUse" x="0" y="0" width="221" height="128" fill="black">
<rect fill="white" width="221" height="128"/>
<path d="M43.7278 120L25.0417 93L38.8694 99.335L71.8837 100.267L72.4003 80.594L32.3667 68.6226C30.2738 68.0308 27.8322 67.1925 25.0417 66.1076C22.3011 65.0227 19.6352 63.4693 17.0441 61.4474C14.4529 59.4255 12.2853 56.7625 10.5413 53.4585C8.8471 50.1051 8 45.8887 8 40.8093C8 33.6587 9.81878 27.7163 13.4563 22.9822C17.0939 18.248 21.9523 14.722 28.0315 12.4042C34.1107 10.0865 40.8377 8.95223 48.2125 9.00155C55.6371 9.10017 92.8605 9 92.8605 9V43.3273L72.4003 43.3273V27.7903H47.9135C44.7244 27.6917 41.7097 28.1355 38.8694 29.1218C36.079 30.0588 33.7868 31.4396 31.993 33.2642C30.2489 35.0888 29.3769 37.2587 29.3769 39.7737C29.3769 42.0915 30.0994 43.9901 31.5445 45.4695C32.9895 46.8996 34.8083 48.0585 37.0008 48.9462C39.1933 49.8338 43.7278 51.1653 43.7278 51.1653L92.8605 66.2122V120H43.7278Z"/>
<path d="M127.186 120V117.379L177.787 28.5792H131.625V9H213V11.6208L162.695 100.267H172.953L182.5 98L170.093 120H127.186Z"/>
<path d="M71.8837 120V9H92.8459L126.51 72.3424V9H148.163V120H126.51L92.8459 57.8641V120H71.8837Z"/>
</mask>
<path d="M43.7278 120L25.0417 93L38.8694 99.335L71.8837 100.267L72.4003 80.594L32.3667 68.6226C30.2738 68.0308 27.8322 67.1925 25.0417 66.1076C22.3011 65.0227 19.6352 63.4693 17.0441 61.4474C14.4529 59.4255 12.2853 56.7625 10.5413 53.4585C8.8471 50.1051 8 45.8887 8 40.8093C8 33.6587 9.81878 27.7163 13.4563 22.9822C17.0939 18.248 21.9523 14.722 28.0315 12.4042C34.1107 10.0865 40.8377 8.95223 48.2125 9.00155C55.6371 9.10017 92.8605 9 92.8605 9V43.3273L72.4003 43.3273V27.7903H47.9135C44.7244 27.6917 41.7097 28.1355 38.8694 29.1218C36.079 30.0588 33.7868 31.4396 31.993 33.2642C30.2489 35.0888 29.3769 37.2587 29.3769 39.7737C29.3769 42.0915 30.0994 43.9901 31.5445 45.4695C32.9895 46.8996 34.8083 48.0585 37.0008 48.9462C39.1933 49.8338 43.7278 51.1653 43.7278 51.1653L92.8605 66.2122V120H43.7278Z" fill="#CDE4FF" style="fill:#CDE4FF;fill:color(display-p3 0.8039 0.8941 1.0000);fill-opacity:1;"/>
<path d="M127.186 120V117.379L177.787 28.5792H131.625V9H213V11.6208L162.695 100.267H172.953L182.5 98L170.093 120H127.186Z" fill="#CDE4FF" style="fill:#CDE4FF;fill:color(display-p3 0.8039 0.8941 1.0000);fill-opacity:1;"/>
<path d="M71.8837 120V9H92.8459L126.51 72.3424V9H148.163V120H126.51L92.8459 57.8641V120H71.8837Z" fill="#CDE4FF" style="fill:#CDE4FF;fill:color(display-p3 0.8039 0.8941 1.0000);fill-opacity:1;"/>
<path d="M43.7278 120L25.0417 93L38.8694 99.335L71.8837 100.267L72.4003 80.594L32.3667 68.6226C30.2738 68.0308 27.8322 67.1925 25.0417 66.1076C22.3011 65.0227 19.6352 63.4693 17.0441 61.4474C14.4529 59.4255 12.2853 56.7625 10.5413 53.4585C8.8471 50.1051 8 45.8887 8 40.8093C8 33.6587 9.81878 27.7163 13.4563 22.9822C17.0939 18.248 21.9523 14.722 28.0315 12.4042C34.1107 10.0865 40.8377 8.95223 48.2125 9.00155C55.6371 9.10017 92.8605 9 92.8605 9V43.3273L72.4003 43.3273V27.7903H47.9135C44.7244 27.6917 41.7097 28.1355 38.8694 29.1218C36.079 30.0588 33.7868 31.4396 31.993 33.2642C30.2489 35.0888 29.3769 37.2587 29.3769 39.7737C29.3769 42.0915 30.0994 43.9901 31.5445 45.4695C32.9895 46.8996 34.8083 48.0585 37.0008 48.9462C39.1933 49.8338 43.7278 51.1653 43.7278 51.1653L92.8605 66.2122V120H43.7278Z" stroke="#527AF8" style="stroke:#527AF8;stroke:color(display-p3 0.3216 0.4784 0.9725);stroke-opacity:1;" stroke-width="16" mask="url(#path-2-outside-2_13_75)"/>
<path d="M127.186 120V117.379L177.787 28.5792H131.625V9H213V11.6208L162.695 100.267H172.953L182.5 98L170.093 120H127.186Z" stroke="#527AF8" style="stroke:#527AF8;stroke:color(display-p3 0.3216 0.4784 0.9725);stroke-opacity:1;" stroke-width="16" mask="url(#path-2-outside-2_13_75)"/>
<path d="M71.8837 120V9H92.8459L126.51 72.3424V9H148.163V120H126.51L92.8459 57.8641V120H71.8837Z" stroke="#527AF8" style="stroke:#527AF8;stroke:color(display-p3 0.3216 0.4784 0.9725);stroke-opacity:1;" stroke-width="16" mask="url(#path-2-outside-2_13_75)"/>
</svg>
