<svg width="335" height="128" viewBox="0 0 335 128" fill="none" xmlns="http://www.w3.org/2000/svg">
<mask id="path-1-outside-1_13_75" maskUnits="userSpaceOnUse" x="200" y="1" width="135" height="127" fill="black">
<rect fill="white" x="200" y="1" width="135" height="127"/>
<path d="M266.24 120L323 64.5L266.24 9L255.74 9.00003V16.5L305 64.5L249 120L266.24 120Z"/>
<path d="M275 9.00003H289.5L228.5 120H214L275 9.00003Z"/>
</mask>
<path d="M266.24 120L323 64.5L266.24 9L255.74 9.00003V16.5L305 64.5L249 120L266.24 120Z" fill="#527AF8"/>
<path d="M275 9.00003H289.5L228.5 120H214L275 9.00003Z" fill="#527AF8"/>
<path d="M266.24 120L323 64.5L266.24 9L255.74 9.00003V16.5L305 64.5L249 120L266.24 120Z" stroke="#0E2F73" stroke-width="16" mask="url(#path-1-outside-1_13_75)"/>
<path d="M275 9.00003H289.5L228.5 120H214L275 9.00003Z" stroke="#0E2F73" stroke-width="16" mask="url(#path-1-outside-1_13_75)"/>
<mask id="path-2-outside-2_13_75" maskUnits="userSpaceOnUse" x="-0.5" y="0" width="246" height="128" fill="black">
<rect fill="white" x="-0.5" width="246" height="128"/>
<path d="M14.5 120L34.5413 86.5L62.8694 99.335L95.8837 100.267L96.4003 80.594L56.3667 68.6226C54.2738 68.0308 51.8322 67.1925 49.0417 66.1076C46.3011 65.0227 43.6352 63.4693 41.0441 61.4474C38.4529 59.4255 36.2853 56.7625 34.5413 53.4585C32.8471 50.1051 32 45.8887 32 40.8093C32 33.6587 33.8188 27.7163 37.4563 22.9822C41.0939 18.248 45.9523 14.722 52.0315 12.4042C58.1107 10.0865 64.8377 8.95223 72.2125 9.00155C79.6371 9.10017 116.86 9 116.86 9V43.3273L96.4003 43.3273V27.7903H71.9135C68.7244 27.6917 65.7097 28.1355 62.8694 29.1218C60.079 30.0588 57.7868 31.4396 55.993 33.2642C54.2489 35.0888 53.3769 37.2587 53.3769 39.7737C53.3769 42.0915 54.0994 43.9901 55.5445 45.4695C56.9895 46.8996 58.8083 48.0585 61.0008 48.9462C63.1933 49.8338 67.7278 51.1653 67.7278 51.1653L116.86 66.2122V120H14.5Z"/>
<path d="M151.186 120V117.379L201.787 28.5792H155.625V9H237V11.6208L186.695 100.267H196.953L206.5 98L194.093 120H151.186Z"/>
<path d="M95.8837 120V9H116.846L150.51 72.3424V9H172.163V120H150.51L116.846 57.8641V120H95.8837Z"/>
</mask>
<path d="M14.5 120L34.5413 86.5L62.8694 99.335L95.8837 100.267L96.4003 80.594L56.3667 68.6226C54.2738 68.0308 51.8322 67.1925 49.0417 66.1076C46.3011 65.0227 43.6352 63.4693 41.0441 61.4474C38.4529 59.4255 36.2853 56.7625 34.5413 53.4585C32.8471 50.1051 32 45.8887 32 40.8093C32 33.6587 33.8188 27.7163 37.4563 22.9822C41.0939 18.248 45.9523 14.722 52.0315 12.4042C58.1107 10.0865 64.8377 8.95223 72.2125 9.00155C79.6371 9.10017 116.86 9 116.86 9V43.3273L96.4003 43.3273V27.7903H71.9135C68.7244 27.6917 65.7097 28.1355 62.8694 29.1218C60.079 30.0588 57.7868 31.4396 55.993 33.2642C54.2489 35.0888 53.3769 37.2587 53.3769 39.7737C53.3769 42.0915 54.0994 43.9901 55.5445 45.4695C56.9895 46.8996 58.8083 48.0585 61.0008 48.9462C63.1933 49.8338 67.7278 51.1653 67.7278 51.1653L116.86 66.2122V120H14.5Z" fill="#CDE4FF"/>
<path d="M151.186 120V117.379L201.787 28.5792H155.625V9H237V11.6208L186.695 100.267H196.953L206.5 98L194.093 120H151.186Z" fill="#CDE4FF"/>
<path d="M95.8837 120V9H116.846L150.51 72.3424V9H172.163V120H150.51L116.846 57.8641V120H95.8837Z" fill="#CDE4FF"/>
<path d="M14.5 120L34.5413 86.5L62.8694 99.335L95.8837 100.267L96.4003 80.594L56.3667 68.6226C54.2738 68.0308 51.8322 67.1925 49.0417 66.1076C46.3011 65.0227 43.6352 63.4693 41.0441 61.4474C38.4529 59.4255 36.2853 56.7625 34.5413 53.4585C32.8471 50.1051 32 45.8887 32 40.8093C32 33.6587 33.8188 27.7163 37.4563 22.9822C41.0939 18.248 45.9523 14.722 52.0315 12.4042C58.1107 10.0865 64.8377 8.95223 72.2125 9.00155C79.6371 9.10017 116.86 9 116.86 9V43.3273L96.4003 43.3273V27.7903H71.9135C68.7244 27.6917 65.7097 28.1355 62.8694 29.1218C60.079 30.0588 57.7868 31.4396 55.993 33.2642C54.2489 35.0888 53.3769 37.2587 53.3769 39.7737C53.3769 42.0915 54.0994 43.9901 55.5445 45.4695C56.9895 46.8996 58.8083 48.0585 61.0008 48.9462C63.1933 49.8338 67.7278 51.1653 67.7278 51.1653L116.86 66.2122V120H14.5Z" stroke="#527AF8" stroke-width="16" mask="url(#path-2-outside-2_13_75)"/>
<path d="M151.186 120V117.379L201.787 28.5792H155.625V9H237V11.6208L186.695 100.267H196.953L206.5 98L194.093 120H151.186Z" stroke="#527AF8" stroke-width="16" mask="url(#path-2-outside-2_13_75)"/>
<path d="M95.8837 120V9H116.846L150.51 72.3424V9H172.163V120H150.51L116.846 57.8641V120H95.8837Z" stroke="#527AF8" stroke-width="16" mask="url(#path-2-outside-2_13_75)"/>
</svg>
