<?xml version="1.0" encoding="utf-8"?>
<svg width="2880" height="1073" viewBox="0 0 2880 1073" fill="none" xmlns="http://www.w3.org/2000/svg">
  <path id="Vector" d="M2096.6 378.397L1985.86 378.397L1985.86 327.811C1985.86 326.74 1985.85 325.673 1985.82 324.61C1985.45 309.3 1982.35 294.601 1976.53 280.514C1976.39 280.193 1976.26 279.869 1976.12 279.541C1975.73 278.615 1975.33 277.693 1974.91 276.776C1968.73 263.068 1960.27 250.851 1949.55 240.126C1938.33 228.907 1924.97 219.828 1910.13 213.554C1895.3 207.28 1878.99 203.811 1861.86 203.811L1817.55 203.811L1817.55 124C1817.55 122.932 1817.53 121.865 1817.51 120.799C1817.13 105.345 1813.97 90.5146 1808.05 76.3074C1807.97 76.1191 1807.89 75.9265 1807.8 75.7297C1807.41 74.801 1807.01 73.8794 1806.6 72.9648C1800.41 59.2557 1791.96 47.0391 1781.23 36.3152C1758.79 13.8782 1727.8 0.00170898 1693.55 0L1005.48 0C988.666 0.00179036 972.58 3.24951 957.227 9.74316C956.386 10.0986 955.549 10.4634 954.715 10.8374C944.112 15.603 934.299 21.8147 925.529 29.2217L124 29.2217C122.931 29.2217 121.864 29.2349 120.799 29.2612C105.134 29.6486 90.1111 32.8831 75.7296 38.9648C74.8031 39.3568 73.8816 39.7595 72.965 40.1731C59.2553 46.3593 47.0387 54.8138 36.3153 65.5366C25.0961 76.7561 16.0172 90.1157 9.74316 104.951C3.79962 119.006 0.575348 133.672 0.070343 148.95C0.0234477 150.368 0 151.792 0 153.222L0 254.396C0 255.466 0.0131429 256.533 0.0394287 257.597C0.42631 273.261 3.66089 288.284 9.74316 302.667C10.1358 303.595 10.5385 304.517 10.9512 305.431C17.136 319.141 25.5907 331.357 36.3152 342.081L36.6445 342.409C59.0565 364.655 89.9209 378.397 124 378.397L661.955 378.397L661.955 428.986C661.955 430.056 661.968 431.122 661.995 432.187C662.374 447.56 665.497 462.316 671.363 476.454C671.578 476.973 671.796 477.49 672.018 478.005C678.151 492.245 686.876 505.106 697.598 515.994C698.071 516.473 698.547 516.949 699.027 517.421C721.351 539.367 751.95 552.923 785.719 552.986L785.955 552.986L1323.91 552.986L1323.91 603.572C1323.91 603.917 1323.91 604.266 1323.91 604.62C1324.04 620.703 1327.15 636.116 1333.24 650.86C1333.5 651.486 1333.76 652.11 1334.03 652.73C1340.17 666.928 1348.88 679.752 1359.58 690.61C1359.97 691.009 1360.37 691.405 1360.77 691.798C1371.87 702.768 1385.04 711.656 1399.64 717.829C1401.3 718.53 1402.97 719.195 1404.66 719.825C1408.85 721.383 1413.14 722.721 1417.53 723.825L1389.36 723.825C1388.29 723.825 1387.22 723.838 1386.16 723.865C1353.37 724.696 1323.74 738.256 1302.03 759.79C1301.79 760.026 1301.56 760.262 1301.32 760.5C1290.09 771.823 1281.03 785.301 1274.81 800.26C1269.08 814.038 1265.96 828.403 1265.44 843.354C1265.39 844.838 1265.36 846.329 1265.36 847.825L1265.36 949C1265.36 950.07 1265.38 951.138 1265.4 952.201C1265.79 967.649 1268.94 982.473 1274.86 996.672C1274.94 996.866 1275.02 997.065 1275.11 997.27C1275.5 998.197 1275.9 999.119 1276.32 1000.03C1282.43 1013.59 1290.77 1025.69 1301.32 1036.32C1301.58 1036.59 1301.84 1036.84 1302.1 1037.1C1324.42 1059.21 1355.09 1072.89 1388.96 1073L1389.36 1073L1479.33 1073C1480.4 1073 1481.47 1072.99 1482.53 1072.96C1515.5 1072.12 1545.27 1058.42 1567.01 1036.68C1577.57 1026.13 1585.92 1014.13 1592.08 1000.68C1592.6 999.553 1593.1 998.416 1593.58 997.27C1599.55 983.154 1602.78 968.421 1603.26 953.07C1603.31 951.717 1603.33 950.36 1603.33 949L1603.33 847.825C1603.33 830.702 1599.86 814.39 1593.58 799.555C1587.31 784.719 1578.23 771.36 1567.01 760.141C1555.79 748.921 1542.43 739.842 1527.6 733.568C1525.94 732.868 1524.27 732.202 1522.57 731.572C1518.39 730.015 1514.09 728.677 1509.71 727.572L1958.35 727.572C1957.65 728.892 1956.97 730.225 1956.32 731.572C1955.55 733.158 1954.81 734.763 1954.11 736.386C1953.97 736.715 1953.83 737.04 1953.69 737.363C1953.18 738.572 1952.69 739.784 1952.22 741.001C1947.21 753.952 1944.48 767.415 1944.02 781.39C1943.97 782.798 1943.95 784.212 1943.95 785.633L1943.95 886.808C1943.95 887.878 1943.96 888.945 1943.99 890.009C1944.37 905.279 1947.45 919.939 1953.24 933.991C1953.39 934.354 1953.54 934.717 1953.69 935.078C1954.09 936.006 1954.49 936.928 1954.9 937.843C1961.09 951.552 1969.54 963.769 1980.27 974.493C2002.7 996.931 2033.7 1010.81 2067.95 1010.81L2756 1010.81C2757.07 1010.81 2758.13 1010.79 2759.2 1010.77C2774.87 1010.38 2789.89 1007.15 2804.27 1001.06C2805.2 1000.67 2806.12 1000.27 2807.04 999.857C2835.42 987.026 2858.1 963.822 2870.26 935.078C2876.2 921.034 2879.42 906.379 2879.93 891.111C2879.98 889.684 2880 888.249 2880 886.808L2880 785.633C2880 784.56 2879.99 783.493 2879.96 782.432C2879.57 766.768 2876.34 751.745 2870.26 737.363C2869.86 736.432 2869.46 735.511 2869.05 734.598C2856.22 706.217 2833.01 683.532 2804.27 671.376C2790.27 665.457 2775.67 662.234 2760.45 661.71C2758.98 661.659 2757.49 661.633 2756 661.633L2633.42 661.633C2634.12 660.314 2634.79 658.981 2635.45 657.633C2636.37 655.729 2637.25 653.798 2638.07 651.841C2638.58 650.635 2639.07 649.423 2639.55 648.205C2644.57 635.217 2647.3 621.713 2647.75 607.693C2647.8 606.323 2647.82 604.949 2647.82 603.572L2647.82 502.397C2647.82 501.326 2647.8 500.259 2647.78 499.197C2647.39 483.534 2644.16 468.511 2638.07 454.127C2637.68 453.196 2637.28 452.274 2636.87 451.362C2624.03 422.981 2600.83 400.297 2572.09 388.141C2558.04 382.201 2543.39 378.977 2528.12 378.469C2526.69 378.421 2525.26 378.397 2523.82 378.397L2495.53 378.397C2489.33 315.707 2436.46 266.751 2372.13 266.751L2337.45 266.751C2337.55 265.424 2337.63 264.09 2337.68 262.751C2337.76 260.976 2337.8 259.193 2337.8 257.402L2337.8 156.221C2337.8 155.153 2337.78 154.087 2337.76 153.02C2337.38 137.647 2334.25 122.891 2328.39 108.752C2328.28 108.484 2328.17 108.217 2328.05 107.95C2327.66 107.023 2327.26 106.101 2326.84 105.186C2320.66 91.4765 2312.2 79.2598 2301.48 68.5357C2291.02 58.0788 2279.15 49.7795 2265.85 43.6377C2264.6 43.0617 2263.34 42.5037 2262.07 41.9639C2248.04 36.0299 2233.39 32.8065 2218.14 32.2935C2216.7 32.245 2215.25 32.2207 2213.8 32.2207L2123.83 32.2207C2122.76 32.2207 2121.69 32.2338 2120.63 32.26C2071.01 33.5181 2028.64 63.9175 2009.99 106.989C2009.71 107.635 2009.43 108.285 2009.16 108.937C2003.48 122.688 2000.4 137.022 1999.9 151.939C1999.86 153.361 1999.83 154.788 1999.83 156.221L1999.83 257.395C1999.83 257.76 1999.84 258.129 1999.84 258.502C1999.97 274.427 2003.03 289.695 2009.01 304.306C2009.36 305.156 2009.72 306 2010.08 306.84C2016.24 320.994 2024.96 333.773 2035.66 344.593C2035.95 344.877 2036.23 345.16 2036.51 345.442C2047.66 356.495 2060.89 365.446 2075.56 371.652C2077.89 372.637 2080.26 373.553 2082.66 374.397C2087.19 375.993 2091.85 377.332 2096.6 378.397L2096.6 378.397ZM931.853 29.2217L1199.91 29.2217C1200.98 29.2217 1202.04 29.2348 1203.11 29.261C1236.08 30.0974 1265.86 43.7998 1287.59 65.5369C1298.63 76.5781 1307.6 89.6924 1313.86 104.246C1314.05 104.688 1314.24 105.132 1314.43 105.577C1320.2 119.437 1323.34 133.891 1323.84 148.94C1323.88 150.363 1323.91 151.79 1323.91 153.222L1323.91 203.811L1813.55 203.811L1813.55 124C1813.55 107.72 1810.4 92.1493 1804.12 77.2878C1798.05 62.9312 1789.48 50.2165 1778.4 39.1436C1767.33 28.0719 1754.62 19.4998 1740.26 13.4272C1725.4 7.14242 1709.83 4 1693.55 4L1005.47 4C989.201 4.00293 973.638 7.14526 958.785 13.4272C951.158 16.6533 943.994 20.5847 937.294 25.2217C935.989 26.1252 934.701 27.0554 933.43 28.0125C932.902 28.4109 932.376 28.814 931.853 29.2217L931.853 29.2217ZM921.018 33.2217L124 33.2217C109.754 33.221 96.0515 35.6269 82.8934 40.4392C81.0144 41.1264 79.1458 41.863 77.2877 42.6489C64.7255 47.9619 53.4205 55.1891 43.3727 64.3306C41.9369 65.6369 40.5272 66.9818 39.1437 68.3652C28.7633 78.7461 20.5804 90.57 14.5951 103.837C14.1961 104.721 13.8068 105.612 13.4273 106.51C7.14245 121.371 4 136.942 4 153.222L4 254.396C4 270.677 7.14245 286.248 13.4273 301.108C19.4991 315.465 28.0712 328.18 39.1437 339.253C50.2166 350.325 62.9313 358.897 77.2877 364.969C92.148 371.254 107.719 374.396 124 374.396L661.955 374.396L661.955 327.811C661.955 326.741 661.968 325.674 661.995 324.61C662.306 311.985 664.468 299.776 668.481 287.982L667.405 289.333L663.261 289.333L668.367 283.049L666.052 281.474L661.596 289.333L658 289.333L663.508 279.745L658 276L663.516 276L665.067 277.031L665.66 276L669.155 276L667.612 278.722L671.081 281.028L671.205 280.725C671.366 280.331 671.531 279.937 671.698 279.541C672.09 278.614 672.493 277.692 672.906 276.776C679.055 263.148 687.446 250.995 698.08 240.317C698.223 240.173 698.367 240.03 698.511 239.886C708.995 229.457 720.899 221.188 734.224 215.079C735.365 214.556 736.518 214.048 737.685 213.554C752.521 207.281 768.832 203.811 785.955 203.811L881.497 203.811L881.497 124C881.497 122.881 881.511 121.764 881.54 120.65C881.941 105.146 885.133 90.2706 891.116 76.0242C891.217 75.7831 891.319 75.5426 891.422 75.3027C897.519 61.0344 906.215 48.1426 916.915 37.2217C918.252 35.8572 919.62 34.5234 921.018 33.2217L921.018 33.2217ZM924.396 35.542L923.744 36.1494C923.228 36.6302 922.714 37.1164 922.204 37.6079C921.679 38.1143 921.158 38.6262 920.641 39.1436C913.572 46.2124 907.522 53.9504 902.491 62.3582C899.84 66.79 897.471 71.4079 895.385 76.2119C895.23 76.5696 895.076 76.9282 894.924 77.2878C889.032 91.2192 885.902 105.775 885.534 120.956C885.509 121.968 885.497 122.983 885.497 124L885.497 203.811L1319.91 203.811L1319.91 153.222C1319.91 136.942 1316.77 121.372 1310.48 106.51C1304.41 92.1523 1295.84 79.4375 1284.76 68.3652C1273.69 57.293 1260.98 48.7209 1246.62 42.6489C1231.76 36.3634 1216.19 33.221 1199.91 33.2217L926.992 33.2217C926.119 33.9812 925.253 34.7546 924.396 35.542L924.396 35.542ZM2123.83 377.396L2158.88 377.396C2160.15 365.507 2163.11 354.122 2167.5 343.481C2167.76 342.837 2168.03 342.196 2168.31 341.557C2174.57 327.09 2183.5 314.052 2194.49 303.067C2216.92 280.628 2247.92 266.751 2282.17 266.751L2333.44 266.751C2333.68 263.667 2333.8 260.555 2333.8 257.416L2333.8 156.221C2333.8 139.941 2330.65 124.37 2324.37 109.509C2318.3 95.1513 2309.72 82.4365 2298.65 71.3643C2287.58 60.2926 2274.86 51.7205 2260.51 45.6479C2245.65 39.3631 2230.08 36.2207 2213.8 36.2207L2123.83 36.2207C2107.55 36.2207 2091.98 39.3631 2077.12 45.6479C2062.76 51.7192 2050.05 60.2913 2038.98 71.3643C2027.9 82.4365 2019.33 95.1513 2013.26 109.509C2012.47 111.367 2011.74 113.236 2011.05 115.115C2006.24 128.274 2003.83 141.976 2003.83 156.221L2003.83 257.395C2003.83 273.675 2006.98 289.246 2013.26 304.107C2016.68 312.197 2020.9 319.765 2025.91 326.811C2028.19 330.018 2030.63 333.117 2033.24 336.109C2035.07 338.21 2036.98 340.257 2038.98 342.252C2050.05 353.325 2062.76 361.897 2077.12 367.968C2081.87 369.978 2086.7 371.666 2091.59 373.033C2093.54 373.577 2095.5 374.07 2097.48 374.512C2106.04 376.434 2114.83 377.395 2123.83 377.396L2123.83 377.396ZM2229.52 135L2224 135L2229.51 138.745L2224 148.333L2227.6 148.333L2232.05 140.474L2234.37 142.049L2229.26 148.333L2233.41 148.333L2239 141.304L2233.61 137.722L2235.15 135L2231.66 135L2231.07 136.031L2229.52 135L2229.52 135ZM2252.52 135L2247 135L2252.51 138.745L2247 148.333L2250.6 148.333L2255.05 140.474L2257.37 142.049L2252.26 148.333L2256.41 148.333L2262 141.304L2256.61 137.722L2258.15 135L2254.66 135L2254.07 136.031L2252.52 135L2252.52 135ZM2275.52 135L2270 135L2275.51 138.745L2270 148.333L2273.6 148.333L2278.05 140.474L2280.37 142.049L2275.26 148.333L2279.41 148.333L2285 141.304L2279.61 137.722L2281.15 135L2277.66 135L2277.07 136.031L2275.52 135L2275.52 135ZM2298.52 135L2293 135L2298.51 138.745L2293 148.333L2296.6 148.333L2301.05 140.474L2303.37 142.049L2298.26 148.333L2302.41 148.333L2308 141.304L2302.61 137.722L2304.15 135L2300.66 135L2300.07 136.031L2298.52 135L2298.52 135ZM2239.52 156L2234 156L2239.51 159.745L2234 169.333L2237.6 169.333L2242.05 161.474L2244.37 163.049L2239.26 169.333L2243.41 169.333L2249 162.304L2243.61 158.722L2245.15 156L2241.66 156L2241.07 157.031L2239.52 156L2239.52 156ZM2262.52 156L2257 156L2262.51 159.745L2257 169.333L2260.6 169.333L2265.05 161.474L2267.37 163.049L2262.26 169.333L2266.41 169.333L2272 162.304L2266.61 158.722L2268.15 156L2264.66 156L2264.07 157.031L2262.52 156L2262.52 156ZM2285.52 156L2280 156L2285.51 159.745L2280 169.333L2283.6 169.333L2288.05 161.474L2290.37 163.049L2285.26 169.333L2289.41 169.333L2295 162.304L2289.61 158.722L2291.15 156L2287.66 156L2287.07 157.031L2285.52 156L2285.52 156ZM2227.52 177L2222 177L2227.51 180.745L2222 190.333L2225.6 190.333L2230.05 182.474L2232.37 184.049L2227.26 190.333L2231.41 190.333L2237 183.304L2231.61 179.722L2233.15 177L2229.66 177L2229.07 178.031L2227.52 177L2227.52 177ZM2250.52 177L2245 177L2250.51 180.745L2245 190.333L2248.6 190.333L2253.05 182.474L2255.37 184.049L2250.26 190.333L2254.41 190.333L2260 183.304L2254.61 179.722L2256.15 177L2252.66 177L2252.07 178.031L2250.52 177L2250.52 177ZM2273.52 177L2268 177L2273.51 180.745L2268 190.333L2271.6 190.333L2276.05 182.474L2278.37 184.049L2273.26 190.333L2277.41 190.333L2283 183.304L2277.61 179.722L2279.15 177L2275.66 177L2275.07 178.031L2273.52 177L2273.52 177ZM1693.55 349.175L1279.88 349.175C1271.35 356.379 1261.83 362.452 1251.56 367.163C1250.46 367.668 1249.35 368.158 1248.23 368.632C1233.47 374.879 1217.26 378.352 1200.24 378.396L1199.91 378.396L665.955 378.396L665.955 428.986C665.955 443.231 668.361 456.933 673.173 470.092C673.86 471.972 674.597 473.84 675.382 475.698C680.695 488.261 687.922 499.566 697.064 509.613C698.37 511.048 699.715 512.458 701.099 513.842C711.479 524.222 723.303 532.405 736.57 538.391C737.458 538.791 738.348 539.18 739.243 539.559C754.103 545.843 769.674 548.986 785.955 548.986L1323.91 548.986L1323.91 502.397C1323.91 501.329 1323.92 500.262 1323.95 499.197C1324.33 483.915 1327.41 469.243 1333.21 455.181C1333.36 454.827 1333.5 454.476 1333.65 454.127C1334.04 453.199 1334.45 452.278 1334.86 451.363C1341.05 437.654 1349.5 425.437 1360.22 414.713C1371.44 403.493 1384.8 394.415 1399.64 388.141C1413.65 382.212 1428.28 378.989 1443.52 378.472C1444.98 378.422 1446.44 378.397 1447.91 378.397L1981.86 378.397L1981.86 327.811C1981.86 311.531 1978.72 295.961 1972.44 281.099C1966.36 266.742 1957.79 254.027 1946.72 242.955C1935.65 231.883 1922.93 223.311 1908.58 217.239C1893.72 210.953 1878.15 207.811 1861.86 207.811L1817.55 207.811L1817.55 225.175C1817.55 226.246 1817.53 227.313 1817.51 228.375C1817.13 243.694 1814.03 258.401 1808.2 272.496C1808.07 272.813 1807.94 273.13 1807.8 273.445C1807.41 274.375 1807.01 275.296 1806.6 276.21C1800.41 289.92 1791.96 302.136 1781.23 312.86C1758.88 335.21 1728.04 349.066 1693.95 349.174L1693.55 349.175L1693.55 349.175ZM665.955 374.396L1199.91 374.396C1216.19 374.396 1231.76 371.253 1246.62 364.969C1254.25 361.743 1261.41 357.812 1268.11 353.175C1269.42 352.272 1270.7 351.343 1271.97 350.387C1272.5 349.988 1273.03 349.583 1273.55 349.175L1005.5 349.175L1005.16 349.174C971.385 349.085 940.788 335.497 918.478 313.52C918.067 313.115 917.659 312.707 917.253 312.297C906.793 301.708 898.525 289.679 892.448 276.21C892.036 275.295 891.633 274.374 891.24 273.445C885.158 259.063 881.923 244.04 881.536 228.375C881.51 227.311 881.497 226.244 881.497 225.175L881.497 207.811L785.955 207.811C769.674 207.811 754.103 210.953 739.243 217.239C738.347 217.617 737.456 218.007 736.57 218.406C723.303 224.391 711.479 232.574 701.099 242.955C699.714 244.339 698.369 245.749 697.064 247.184C687.922 257.231 680.695 268.536 675.382 281.099C674.597 282.956 673.86 284.825 673.173 286.705C668.361 299.865 665.955 313.566 665.955 327.811L665.955 374.396L665.955 374.396ZM1281 342.859L1281.66 342.247C1282.17 341.775 1282.67 341.299 1283.17 340.82C1283.7 340.303 1284.24 339.781 1284.76 339.253C1291.87 332.149 1297.94 324.369 1302.99 315.913C1305.58 311.575 1307.89 307.06 1309.94 302.366C1310.12 301.948 1310.3 301.529 1310.48 301.108C1315.19 289.962 1318.14 278.417 1319.32 266.473C1319.71 262.493 1319.91 258.468 1319.91 254.396L1319.91 207.811L885.497 207.811L885.497 225.175C885.497 241.454 888.64 257.025 894.924 271.887L894.996 272.055C901.063 286.343 909.611 299.002 920.641 310.031C931.714 321.103 944.428 329.676 958.785 335.748C973.645 342.032 989.216 345.175 1005.5 345.175L1278.41 345.175C1279.29 344.417 1280.15 343.645 1281 342.859L1281 342.859ZM1323.91 207.811L1323.91 254.438C1323.9 270.914 1320.78 286.689 1314.54 301.762C1314.33 302.29 1314.1 302.816 1313.88 303.339C1307.79 317.512 1299.33 330.124 1288.49 341.175C1288.19 341.478 1287.89 341.78 1287.59 342.081C1286.54 343.136 1285.47 344.168 1284.39 345.178L1285.18 345.175L1693.55 345.175C1709.83 345.175 1725.4 342.032 1740.26 335.748C1754.62 329.676 1767.33 321.103 1778.4 310.031C1789.48 298.958 1798.05 286.243 1804.12 271.887C1810.4 257.025 1813.55 241.454 1813.55 225.175L1813.55 207.811L1323.91 207.811L1323.91 207.811ZM2240.15 374.512C2242.29 374.033 2244.41 373.495 2246.52 372.896C2251.25 371.554 2255.91 369.911 2260.51 367.968C2274.87 361.897 2287.58 353.325 2298.65 342.252C2299.61 341.295 2300.55 340.326 2301.47 339.345C2303.57 337.105 2305.57 334.801 2307.47 332.433C2314.39 323.833 2320.02 314.392 2324.37 304.107C2327.93 295.695 2330.48 287.056 2332.02 278.189C2332.22 277.048 2332.4 275.902 2332.57 274.751C2332.76 273.422 2332.93 272.089 2333.07 270.751L2333.06 270.75L2329.05 270.751L2282.17 270.751C2279.12 270.751 2276.09 270.862 2273.09 271.084C2261.12 271.967 2249.53 274.61 2238.31 279.014C2237.83 279.206 2237.34 279.402 2236.85 279.602C2236.38 279.791 2235.92 279.983 2235.46 280.179C2231.48 281.862 2227.62 283.738 2223.89 285.806C2215.02 290.726 2206.87 296.733 2199.43 303.828C2198.72 304.507 2198.01 305.196 2197.31 305.895C2193.55 309.662 2190.07 313.62 2186.88 317.767C2181.61 324.627 2177.13 332.007 2173.44 339.907C2172.8 341.269 2172.19 342.646 2171.6 344.039C2169.52 348.958 2167.78 353.953 2166.39 359.027C2165.1 363.749 2164.1 368.539 2163.4 373.396C2163.21 374.724 2163.04 376.057 2162.89 377.396L2213.8 377.396C2222.8 377.395 2231.58 376.434 2240.15 374.512L2240.15 374.512ZM2241.03 378.397L2491.52 378.397C2491.38 377.059 2491.22 375.726 2491.04 374.397C2490.34 369.177 2489.29 364.035 2487.9 358.97C2486.51 353.916 2484.78 348.939 2482.71 344.039C2482.19 342.823 2481.66 341.618 2481.11 340.425C2477.27 332.103 2472.56 324.354 2466.97 317.179C2463.91 313.245 2460.58 309.484 2456.99 305.895C2456.37 305.271 2455.74 304.655 2455.1 304.047C2447.91 297.15 2440.04 291.274 2431.5 286.42C2427.43 284.108 2423.22 282.028 2418.85 280.179C2418.44 280.008 2418.04 279.839 2417.63 279.673C2417.15 279.477 2416.68 279.286 2416.21 279.101C2405.87 275.015 2395.2 272.429 2384.21 271.343C2380.23 270.948 2376.2 270.751 2372.13 270.751L2337.09 270.751C2335.79 282.81 2332.78 294.351 2328.28 305.122C2328.14 305.471 2327.99 305.82 2327.84 306.167C2314.24 337.929 2287.76 362.86 2254.97 374.397C2250.44 375.993 2245.78 377.332 2241.03 378.397L2241.03 378.397ZM589 276L594.516 276L596.067 277.031L596.66 276L600.155 276L598.612 278.722L604 282.304L598.406 289.333L594.261 289.333L599.367 283.049L597.052 281.474L592.596 289.333L589 289.333L594.508 279.745L589 276L589 276ZM612 276L617.516 276L619.067 277.031L619.66 276L623.155 276L621.612 278.722L627 282.304L621.406 289.333L617.261 289.333L622.367 283.049L620.052 281.474L615.596 289.333L612 289.333L617.508 279.745L612 276L612 276ZM635 276L640.516 276L642.067 277.031L642.66 276L646.155 276L644.612 278.722L650 282.304L644.406 289.333L640.261 289.333L645.367 283.049L643.052 281.474L638.596 289.333L635 289.333L640.508 279.745L635 276L635 276ZM599 297L604.516 297L606.067 298.031L606.66 297L610.155 297L608.612 299.722L614 303.304L608.406 310.333L604.261 310.333L609.367 304.049L607.052 302.474L602.596 310.333L599 310.333L604.508 300.745L599 297L599 297ZM622 297L627.516 297L629.067 298.031L629.66 297L633.155 297L631.612 299.722L637 303.304L631.406 310.333L627.261 310.333L632.367 304.049L630.052 302.474L625.596 310.333L622 310.333L627.508 300.745L622 297L622 297ZM645 297L650.516 297L652.067 298.031L652.66 297L656.155 297L654.612 299.722L660 303.304L654.406 310.333L650.261 310.333L655.367 304.049L653.052 302.474L648.596 310.333L645 310.333L650.508 300.745L645 297L645 297ZM587 318L592.516 318L594.067 319.031L594.66 318L598.155 318L596.612 320.722L602 324.304L596.406 331.333L592.261 331.333L597.367 325.049L595.052 323.474L590.596 331.333L587 331.333L592.508 321.745L587 318L587 318ZM610 318L615.516 318L617.067 319.031L617.66 318L621.155 318L619.612 320.722L625 324.304L619.406 331.333L615.261 331.333L620.367 325.049L618.052 323.474L613.596 331.333L610 331.333L615.508 321.745L610 318L610 318ZM633 318L638.516 318L640.067 319.031L640.66 318L644.155 318L642.612 320.722L648 324.304L642.406 331.333L638.261 331.333L643.367 325.049L641.052 323.474L636.596 331.333L633 331.333L638.508 321.745L633 318L633 318ZM1985.86 382.397L2158.45 382.397C2158.36 383.725 2158.29 385.059 2158.25 386.397C2158.2 387.84 2158.17 389.288 2158.17 390.741L2158.17 491.926C2158.17 492.997 2158.18 494.064 2158.21 495.127C2158.59 510.447 2161.69 525.153 2167.52 539.246C2167.65 539.563 2167.78 539.88 2167.91 540.196C2168.31 541.124 2168.71 542.046 2169.12 542.961C2175.31 556.67 2183.76 568.887 2194.49 579.611C2216.92 602.049 2247.92 615.926 2282.17 615.926L2372.13 615.926C2373.2 615.926 2374.27 615.913 2375.33 615.887C2391 615.5 2406.02 612.265 2420.4 606.183C2421.33 605.79 2422.26 605.387 2423.17 604.975C2436.88 598.79 2449.09 590.336 2459.82 579.611C2470.37 569.064 2478.72 557.072 2484.87 543.636C2485.4 542.498 2485.9 541.351 2486.39 540.196C2492.36 526.085 2495.58 511.356 2496.07 496.008C2496.11 494.65 2496.13 493.289 2496.13 491.926L2496.13 390.741C2496.13 389.285 2496.11 387.838 2496.06 386.397C2496.01 385.059 2495.94 383.725 2495.86 382.397L2523.82 382.397C2540.1 382.397 2555.67 385.54 2570.53 391.825C2584.89 397.897 2597.6 406.469 2608.67 417.541C2619.75 428.613 2628.32 441.328 2634.39 455.685C2640.67 470.546 2643.82 486.117 2643.82 502.397L2643.82 603.572C2643.82 604.592 2643.8 605.607 2643.78 606.616C2643.41 621.797 2640.28 636.353 2634.39 650.284C2633.65 652.043 2632.86 653.778 2632.04 655.488C2631.1 657.463 2630.1 659.405 2629.06 661.314L2628.88 661.633L2067.95 661.633C2033.92 661.633 2003.1 675.332 1980.7 697.516C1980.41 697.801 1980.13 698.088 1979.84 698.376C1972.4 705.893 1965.91 714.357 1960.57 723.572L1447.91 723.572C1437.84 723.572 1428.03 722.369 1418.5 719.963C1416.7 719.509 1414.91 719.01 1413.13 718.469C1409.1 717.248 1405.12 715.806 1401.2 714.145C1386.84 708.073 1374.12 699.501 1363.05 688.428C1360.82 686.192 1358.68 683.889 1356.65 681.52C1353.91 678.32 1351.35 674.999 1348.98 671.556C1344.41 664.918 1340.53 657.828 1337.34 650.284C1331.05 635.422 1327.91 619.852 1327.91 603.572L1327.91 556.986L1327.91 552.986L1861.86 552.986C1862.93 552.986 1864 552.973 1865.06 552.947C1897.76 552.117 1927.31 538.638 1949 517.219C1971.74 494.758 1985.84 463.565 1985.86 429.073L1985.86 382.397L1985.86 382.397ZM1401.2 391.825C1416.06 385.54 1431.63 382.397 1447.91 382.397L1981.86 382.397L1981.86 428.986C1981.86 445.265 1978.72 460.836 1972.44 475.698C1966.36 490.054 1957.79 502.769 1946.72 513.842C1935.65 524.915 1922.93 533.487 1908.58 539.559C1893.72 545.844 1878.14 548.987 1861.86 548.986L1327.91 548.986L1327.91 502.397C1327.91 486.117 1331.05 470.546 1337.34 455.685C1343.41 441.329 1351.98 428.615 1363.05 417.541C1374.12 406.469 1386.84 397.897 1401.2 391.825L1401.2 391.825ZM2491.85 382.397L2162.45 382.397C2162.26 385.159 2162.17 387.942 2162.17 390.745L2162.17 491.926C2162.17 508.206 2165.31 523.777 2171.6 538.638C2177.67 552.995 2186.24 565.71 2197.31 576.782C2208.39 587.855 2221.1 596.427 2235.46 602.499C2250.32 608.784 2265.89 611.927 2282.17 611.926L2372.13 611.926C2388.41 611.926 2403.98 608.784 2418.85 602.499C2433.2 596.427 2445.92 587.855 2456.99 576.782C2468.06 565.711 2476.63 552.996 2482.71 538.638C2488.99 523.778 2492.13 508.207 2492.13 491.926L2492.13 390.751C2492.13 387.946 2492.04 385.161 2491.85 382.397L2491.85 382.397ZM1962.7 727.906C1961.67 729.791 1960.69 731.71 1959.75 733.661C1958.92 735.389 1958.13 737.143 1957.38 738.921C1951.49 752.854 1948.36 767.409 1947.99 782.589C1947.96 783.601 1947.95 784.615 1947.95 785.633L1947.95 886.808C1947.95 903.088 1951.09 918.658 1957.38 933.52C1963.45 947.878 1972.02 960.593 1983.09 971.665C1994.17 982.737 2006.88 991.309 2021.24 997.381C2036.1 1003.67 2051.67 1006.81 2067.95 1006.81L2756 1006.81C2772.28 1006.81 2787.85 1003.67 2802.71 997.381C2817.07 991.309 2829.78 982.737 2840.86 971.665C2851.93 960.593 2860.5 947.878 2866.57 933.52C2872.86 918.66 2876 903.089 2876 886.808L2876 785.633C2876 769.352 2872.86 753.781 2866.57 738.921C2860.5 724.564 2851.93 711.849 2840.86 700.777C2829.78 689.705 2817.07 681.133 2802.71 675.061C2787.85 668.776 2772.28 665.634 2756 665.633L2631.2 665.633C2625.76 675.024 2619.12 683.634 2611.5 691.257C2589.07 713.693 2558.07 727.569 2523.83 727.572L1962.89 727.572C1962.82 727.697 1962.76 727.808 1962.7 727.906L1962.7 727.906ZM2626.57 665.633L2067.95 665.633C2066.36 665.633 2064.77 665.663 2063.2 665.721C2048.63 666.277 2034.65 669.389 2021.24 675.061C2018.38 676.27 2015.58 677.579 2012.85 678.987C2007.9 681.542 2003.16 684.423 1998.64 687.63C1993.14 691.53 1987.96 695.912 1983.09 700.777C1978.04 705.832 1973.51 711.229 1969.49 716.969C1968.89 717.829 1968.3 718.697 1967.72 719.572C1966.85 720.888 1966.01 722.222 1965.2 723.572L2523.82 723.572C2525.29 723.572 2526.75 723.547 2528.2 723.498C2542.9 722.981 2557.01 719.864 2570.53 714.145C2573.38 712.939 2576.17 711.634 2578.89 710.23C2583.9 707.649 2588.68 704.735 2593.25 701.488C2598.7 697.61 2603.84 693.257 2608.67 688.428C2613.71 683.397 2618.22 678.026 2622.22 672.315C2622.84 671.43 2623.45 670.535 2624.04 669.633C2624.91 668.317 2625.75 666.984 2626.57 665.633L2626.57 665.633ZM1508.73 731.434C1499.2 729.028 1489.4 727.825 1479.33 727.825L1389.36 727.825C1373.08 727.825 1357.51 730.968 1342.65 737.252C1328.3 743.324 1315.58 751.896 1304.51 762.969C1303.12 764.353 1301.78 765.763 1300.47 767.198C1291.33 777.245 1284.1 788.55 1278.79 801.113C1278.69 801.35 1278.59 801.582 1278.5 801.81C1272.41 816.46 1269.36 831.799 1269.36 847.825L1269.36 949C1269.36 965.281 1272.51 980.851 1278.79 995.712C1284.86 1010.07 1293.44 1022.78 1304.51 1033.86C1315.58 1044.93 1328.3 1053.5 1342.65 1059.57C1357.51 1065.86 1373.08 1069 1389.36 1069L1479.33 1069C1495.61 1069 1511.18 1065.86 1526.04 1059.57C1540.4 1053.5 1553.11 1044.93 1564.18 1033.86C1575.26 1022.78 1583.83 1010.07 1589.9 995.712C1596.18 980.851 1599.33 965.281 1599.33 949L1599.33 847.825L1599.33 847.166C1599.24 831.125 1596.1 815.774 1589.9 801.113C1586.72 793.593 1582.85 786.524 1578.3 779.905C1575.89 776.406 1573.3 773.033 1570.51 769.786C1568.5 767.449 1566.39 765.176 1564.18 762.969C1553.11 751.896 1540.4 743.324 1526.04 737.252C1522.12 735.596 1518.16 734.157 1514.14 732.938C1512.35 732.393 1510.54 731.892 1508.73 731.434L1508.73 731.434Z" fill="#7287FD" fill-rule="evenodd" />
</svg>