<svg width="46" height="48" viewBox="0 0 46 48" fill="none" xmlns="http://www.w3.org/2000/svg">
<g clip-path="url(#clip0_93_621)">
<path d="M45.8923 11.071C45.9093 11.1341 45.918 11.199 45.9182 11.2643V21.4108C45.9182 21.5411 45.8838 21.669 45.8186 21.7817C45.7533 21.8944 45.6594 21.9878 45.5464 22.0526L37.0303 26.9557V36.674C37.0303 36.9385 36.8897 37.1827 36.6604 37.3158L18.8837 47.5493C18.843 47.5724 18.7986 47.5872 18.7542 47.6029C18.7376 47.6084 18.7218 47.6186 18.7043 47.6232C18.58 47.656 18.4494 47.656 18.3251 47.6232C18.3048 47.6177 18.2863 47.6066 18.2668 47.5992C18.2262 47.5844 18.1836 47.5714 18.1448 47.5493L0.371755 37.3158C0.258848 37.251 0.165034 37.1575 0.0997677 37.0448C0.0345014 36.9321 8.9461e-05 36.8043 0 36.674L0 6.23453C0 6.16795 0.00924763 6.10321 0.0258934 6.04033C0.031442 6.01906 0.0443886 5.99964 0.0517867 5.97837C0.0656582 5.93953 0.0786049 5.89977 0.0989497 5.8637C0.112821 5.83966 0.133166 5.82024 0.149812 5.79804C0.171081 5.76845 0.190501 5.73793 0.21547 5.71204C0.236739 5.69077 0.264482 5.67505 0.288526 5.65655C0.315344 5.63436 0.339388 5.61031 0.369905 5.59274L9.2578 0.476028C9.37033 0.411276 9.49788 0.377197 9.62771 0.377197C9.75754 0.377197 9.88509 0.411276 9.99762 0.476028L18.8846 5.59274H18.8864C18.916 5.61124 18.941 5.63436 18.9678 5.65563C18.9919 5.67412 19.0187 5.69077 19.04 5.71111C19.0658 5.73793 19.0843 5.76845 19.1065 5.79804C19.1223 5.82024 19.1435 5.83966 19.1565 5.8637C19.1777 5.90069 19.1898 5.93953 19.2046 5.97837C19.212 5.99964 19.2249 6.01906 19.2305 6.04125C19.2475 6.10427 19.2562 6.16925 19.2563 6.23453V25.2467L26.6618 20.9827V11.2634C26.6618 11.1987 26.6711 11.133 26.6877 11.071C26.6942 11.0488 26.7062 11.0294 26.7136 11.0082C26.7284 10.9693 26.7414 10.9296 26.7617 10.8935C26.7756 10.8694 26.7959 10.85 26.8117 10.8278C26.8339 10.7982 26.8524 10.7677 26.8782 10.7418C26.8995 10.7206 26.9263 10.7048 26.9504 10.6863C26.9781 10.6641 27.0022 10.6401 27.0318 10.6225L35.9206 5.50582C36.0331 5.44097 36.1606 5.40684 36.2905 5.40684C36.4203 5.40684 36.5479 5.44097 36.6604 5.50582L45.5474 10.6225C45.5788 10.641 45.6029 10.6641 45.6306 10.6854C45.6537 10.7039 45.6805 10.7206 45.7018 10.7409C45.7277 10.7677 45.7462 10.7982 45.7684 10.8278C45.785 10.85 45.8054 10.8694 45.8183 10.8935C45.8396 10.9296 45.8516 10.9693 45.8664 11.0082C45.8747 11.0294 45.8868 11.0488 45.8923 11.071ZM44.4367 20.9827V12.5451L41.3267 14.3355L37.0303 16.8092V25.2467L44.4377 20.9827H44.4367ZM35.5498 36.2459V27.8028L31.3236 30.2164L19.2554 37.1041V45.6267L35.5498 36.2459ZM1.48147 7.51533V36.2459L17.774 45.6258V37.105L9.26243 32.2879L9.25965 32.286L9.25596 32.2842C9.22729 32.2675 9.20325 32.2435 9.17643 32.2232C9.15331 32.2047 9.12649 32.1899 9.10614 32.1695L9.10429 32.1667C9.08025 32.1436 9.06361 32.115 9.04326 32.0891C9.02477 32.0641 9.00257 32.0428 8.98777 32.0169L8.98685 32.0142C8.9702 31.9864 8.96003 31.9531 8.94801 31.9217C8.93599 31.8939 8.92027 31.868 8.91287 31.8385C8.90362 31.8033 8.90177 31.7654 8.89807 31.7293C8.89437 31.7016 8.88698 31.6738 8.88698 31.6461V11.7794L4.59145 9.30474L1.48147 7.51533ZM9.62864 1.9723L2.22406 6.23453L9.62679 10.4968L17.0304 6.2336L9.62679 1.9723H9.62864ZM13.4794 28.5722L17.7749 26.0994V7.51533L14.6649 9.30567L10.3684 11.7794V30.3635L13.4794 28.5722ZM36.2905 7.00208L28.8868 11.2643L36.2905 15.5266L43.6932 11.2634L36.2905 7.00208ZM35.5498 16.8092L31.2533 14.3355L28.1433 12.5451V20.9827L32.4388 23.4555L35.5498 25.2467V16.8092ZM18.5138 35.8233L29.3733 29.6236L34.8016 26.5257L27.4035 22.2662L18.8855 27.1702L11.1221 31.6396L18.5138 35.8233Z" fill="#FF2D20"/>
</g>
<defs>
<clipPath id="clip0_93_621">
<rect width="46" height="47.56" fill="white" transform="translate(0 0.219971)"/>
</clipPath>
</defs>
</svg>
