<svg width="360" height="162" viewBox="0 0 360 162" fill="none" xmlns="http://www.w3.org/2000/svg">
<mask id="path-1-outside-1_13_75" maskUnits="userSpaceOnUse" x="264" y="0" width="96" height="162" fill="black">
<rect fill="white" x="264" width="96" height="162"/>
<path d="M307.842 147L350 81L307.842 15L296.353 32.9874L327.64 81L296.353 129.013L307.842 147Z"/>
<path d="M302.852 15H318.706L289.854 147H274L302.852 15Z"/>
</mask>
<path d="M307.842 147L350 81L307.842 15L296.353 32.9874L327.64 81L296.353 129.013L307.842 147Z" fill="#527AF8" style="fill:#527AF8;fill:color(display-p3 0.3216 0.4784 0.9725);fill-opacity:1;"/>
<path d="M302.852 15H318.706L289.854 147H274L302.852 15Z" fill="#527AF8" style="fill:#527AF8;fill:color(display-p3 0.3216 0.4784 0.9725);fill-opacity:1;"/>
<path d="M307.842 147L350 81L307.842 15L296.353 32.9874L327.64 81L296.353 129.013L307.842 147Z" stroke="#0E2F73" style="stroke:#0E2F73;stroke:color(display-p3 0.0549 0.1843 0.4510);stroke-opacity:1;" stroke-width="16" mask="url(#path-1-outside-1_13_75)"/>
<path d="M302.852 15H318.706L289.854 147H274L302.852 15Z" stroke="#0E2F73" style="stroke:#0E2F73;stroke:color(display-p3 0.0549 0.1843 0.4510);stroke-opacity:1;" stroke-width="16" mask="url(#path-1-outside-1_13_75)"/>
<mask id="path-2-outside-2_13_75" maskUnits="userSpaceOnUse" x="66" y="17" width="221" height="128" fill="black">
<rect fill="white" x="66" y="17" width="221" height="128"/>
<path d="M109.728 137L91.0417 110L104.869 116.335L137.884 117.267L138.4 97.594L98.3667 85.6226C96.2738 85.0308 93.8322 84.1925 91.0417 83.1076C88.3011 82.0227 85.6352 80.4693 83.0441 78.4474C80.4529 76.4255 78.2853 73.7625 76.5413 70.4585C74.8471 67.1051 74 62.8887 74 57.8093C74 50.6587 75.8188 44.7163 79.4563 39.9822C83.0939 35.248 87.9523 31.722 94.0315 29.4042C100.111 27.0865 106.838 25.9522 114.212 26.0015C121.637 26.1002 158.86 26 158.86 26V60.3273L138.4 60.3273V44.7903H113.914C110.724 44.6917 107.71 45.1355 104.869 46.1218C102.079 47.0588 99.7868 48.4396 97.993 50.2642C96.2489 52.0888 95.3769 54.2587 95.3769 56.7737C95.3769 59.0915 96.0994 60.9901 97.5445 62.4695C98.9895 63.8996 100.808 65.0585 103.001 65.9462C105.193 66.8338 109.728 68.1653 109.728 68.1653L158.86 83.2122V137H109.728Z"/>
<path d="M193.186 137V134.379L243.787 45.5792H197.625V26H279V28.6208L228.695 117.267H238.953L248.012 114.5L236.093 137H193.186Z"/>
<path d="M137.884 137V26H158.846L192.51 89.3424V26H214.163V137H192.51L158.846 74.8641V137H137.884Z"/>
</mask>
<path d="M109.728 137L91.0417 110L104.869 116.335L137.884 117.267L138.4 97.594L98.3667 85.6226C96.2738 85.0308 93.8322 84.1925 91.0417 83.1076C88.3011 82.0227 85.6352 80.4693 83.0441 78.4474C80.4529 76.4255 78.2853 73.7625 76.5413 70.4585C74.8471 67.1051 74 62.8887 74 57.8093C74 50.6587 75.8188 44.7163 79.4563 39.9822C83.0939 35.248 87.9523 31.722 94.0315 29.4042C100.111 27.0865 106.838 25.9522 114.212 26.0015C121.637 26.1002 158.86 26 158.86 26V60.3273L138.4 60.3273V44.7903H113.914C110.724 44.6917 107.71 45.1355 104.869 46.1218C102.079 47.0588 99.7868 48.4396 97.993 50.2642C96.2489 52.0888 95.3769 54.2587 95.3769 56.7737C95.3769 59.0915 96.0994 60.9901 97.5445 62.4695C98.9895 63.8996 100.808 65.0585 103.001 65.9462C105.193 66.8338 109.728 68.1653 109.728 68.1653L158.86 83.2122V137H109.728Z" fill="#CDE4FF" style="fill:#CDE4FF;fill:color(display-p3 0.8039 0.8941 1.0000);fill-opacity:1;"/>
<path d="M193.186 137V134.379L243.787 45.5792H197.625V26H279V28.6208L228.695 117.267H238.953L248.012 114.5L236.093 137H193.186Z" fill="#CDE4FF" style="fill:#CDE4FF;fill:color(display-p3 0.8039 0.8941 1.0000);fill-opacity:1;"/>
<path d="M137.884 137V26H158.846L192.51 89.3424V26H214.163V137H192.51L158.846 74.8641V137H137.884Z" fill="#CDE4FF" style="fill:#CDE4FF;fill:color(display-p3 0.8039 0.8941 1.0000);fill-opacity:1;"/>
<path d="M109.728 137L91.0417 110L104.869 116.335L137.884 117.267L138.4 97.594L98.3667 85.6226C96.2738 85.0308 93.8322 84.1925 91.0417 83.1076C88.3011 82.0227 85.6352 80.4693 83.0441 78.4474C80.4529 76.4255 78.2853 73.7625 76.5413 70.4585C74.8471 67.1051 74 62.8887 74 57.8093C74 50.6587 75.8188 44.7163 79.4563 39.9822C83.0939 35.248 87.9523 31.722 94.0315 29.4042C100.111 27.0865 106.838 25.9522 114.212 26.0015C121.637 26.1002 158.86 26 158.86 26V60.3273L138.4 60.3273V44.7903H113.914C110.724 44.6917 107.71 45.1355 104.869 46.1218C102.079 47.0588 99.7868 48.4396 97.993 50.2642C96.2489 52.0888 95.3769 54.2587 95.3769 56.7737C95.3769 59.0915 96.0994 60.9901 97.5445 62.4695C98.9895 63.8996 100.808 65.0585 103.001 65.9462C105.193 66.8338 109.728 68.1653 109.728 68.1653L158.86 83.2122V137H109.728Z" stroke="#527AF8" style="stroke:#527AF8;stroke:color(display-p3 0.3216 0.4784 0.9725);stroke-opacity:1;" stroke-width="16" mask="url(#path-2-outside-2_13_75)"/>
<path d="M193.186 137V134.379L243.787 45.5792H197.625V26H279V28.6208L228.695 117.267H238.953L248.012 114.5L236.093 137H193.186Z" stroke="#527AF8" style="stroke:#527AF8;stroke:color(display-p3 0.3216 0.4784 0.9725);stroke-opacity:1;" stroke-width="16" mask="url(#path-2-outside-2_13_75)"/>
<path d="M137.884 137V26H158.846L192.51 89.3424V26H214.163V137H192.51L158.846 74.8641V137H137.884Z" stroke="#527AF8" style="stroke:#527AF8;stroke:color(display-p3 0.3216 0.4784 0.9725);stroke-opacity:1;" stroke-width="16" mask="url(#path-2-outside-2_13_75)"/>
<mask id="path-3-outside-3_13_75" maskUnits="userSpaceOnUse" x="0" y="0" width="73" height="162" fill="black">
<rect fill="white" width="73" height="162"/>
<path d="M51.6491 147L10 81L51.6491 15L63 32.9874L32.0906 81L63 129.013L51.6491 147Z"/>
</mask>
<path d="M51.6491 147L10 81L51.6491 15L63 32.9874L32.0906 81L63 129.013L51.6491 147Z" fill="#527AF8" style="fill:#527AF8;fill:color(display-p3 0.3216 0.4784 0.9725);fill-opacity:1;"/>
<path d="M51.6491 147L10 81L51.6491 15L63 32.9874L32.0906 81L63 129.013L51.6491 147Z" stroke="#0E2F73" style="stroke:#0E2F73;stroke:color(display-p3 0.0549 0.1843 0.4510);stroke-opacity:1;" stroke-width="16" mask="url(#path-3-outside-3_13_75)"/>
</svg>
