<svg width="1078" height="612" viewBox="0 0 1078 612" fill="none" xmlns="http://www.w3.org/2000/svg">
<path d="M546.357 75.4877C605.082 39.6244 713.857 -2.32418 793.48 5.00903C873.103 12.3422 927.181 39.6937 977.797 85.6272C1028.41 131.561 1062.03 192.523 1073.42 259.056C1084.82 325.59 1073.36 393.977 1040.83 453.61C1008.3 513.243 956.508 560.789 893.493 588.872C830.479 616.956 760.307 617.062 692.857 601.988C629.886 580.101 527.357 507.988 527.357 507.988L410.857 416.488L279.357 316.622H857.079L546.357 75.4877Z" fill="url(#paint0_linear_3_17)"/>
<path d="M523.357 532.988C469.857 573.488 368.357 614.737 284.233 606.99C215.321 600.643 150.532 572.305 99.9165 526.371C49.301 480.438 15.6878 419.476 4.29077 352.942C-7.10624 286.408 4.34993 218.021 36.8823 158.388C69.4147 98.7551 121.205 51.2094 184.22 23.1262C247.234 -4.957 317.906 -4.58679 385.357 10.4878C448.327 32.3741 564.357 110.488 564.357 110.488L662.857 189.488L796.357 295.376L220.634 295.376L523.357 532.988Z" fill="url(#paint1_linear_3_17)"/>
<path d="M220.634 285.876L769.092 285.876L656.953 196.931L656.933 196.915L656.913 196.899L558.732 118.154L558.727 118.151L558.641 118.093C558.429 117.951 558.135 117.755 557.764 117.507C556.91 116.937 555.645 116.095 554.009 115.013C550.738 112.851 545.987 109.732 540.087 105.92C528.283 98.2918 511.896 87.8975 493.56 76.828C456.838 54.6584 413.155 30.31 382.748 19.6396C316.688 4.95734 248.464 4.89587 188.087 31.8035C126.943 59.0529 76.7399 105.164 45.222 162.938C13.7068 220.706 2.62097 286.927 13.6544 351.338C24.6881 415.751 57.2358 474.81 106.301 519.336C155.37 563.866 218.216 591.369 285.105 597.53C325.425 601.243 370.445 593.222 412.234 579.083C448.847 566.695 482.422 549.799 507.541 532.651L214.768 302.849L193.145 285.876H220.634ZM857.079 326.122H307.574L416.602 408.922L416.664 408.969L416.724 409.017L533.022 500.357L533.1 500.412C533.182 500.47 533.283 500.54 533.401 500.623C533.555 500.73 533.739 500.858 533.951 501.006C534.705 501.531 535.823 502.307 537.272 503.304C540.17 505.299 544.388 508.179 549.65 511.706C560.178 518.763 574.865 528.397 591.497 538.705C624.804 559.348 665.126 582.193 695.465 592.836C761.467 607.503 829.212 607.119 889.626 580.195C950.77 552.946 1000.97 506.834 1032.49 449.061C1064.01 391.292 1075.09 325.072 1064.06 260.66C1053.03 196.247 1020.48 137.189 971.412 92.6622C922.214 48.0144 870.037 21.6001 792.609 14.469C754.588 10.9673 708.869 19.2322 664.943 33.1084C626.914 45.1218 590.876 61.1333 563.282 76.5978L862.903 309.117L884.816 326.122H857.079Z" stroke="url(#paint2_linear_3_17)" stroke-width="19"/>
<defs>
<linearGradient id="paint0_linear_3_17" x1="1062.21" y1="588.5" x2="110.213" y2="-3.65379e-05" gradientUnits="userSpaceOnUse">
<stop stop-color="#3D2FFF"/>
<stop offset="0.345" stop-color="#31FFDD"/>
<stop offset="0.755" stop-color="#EC4545"/>
<stop offset="1" stop-color="#737373"/>
</linearGradient>
<linearGradient id="paint1_linear_3_17" x1="-56" y1="306" x2="838" y2="596.5" gradientUnits="userSpaceOnUse">
<stop stop-color="#63D5FF"/>
<stop offset="0.5" stop-color="#33FFB8"/>
<stop offset="0.747637" stop-color="#10FF74"/>
</linearGradient>
<linearGradient id="paint2_linear_3_17" x1="538.857" y1="612" x2="538.857" y2="0.290771" gradientUnits="userSpaceOnUse">
<stop stop-color="#43E3FF"/>
<stop offset="1" stop-color="#288899"/>
</linearGradient>
</defs>
</svg>
