<svg width="314" height="128" viewBox="0 0 314 128" fill="none" xmlns="http://www.w3.org/2000/svg">
<mask id="path-1-outside-1_13_75" maskUnits="userSpaceOnUse" x="179" y="1" width="135" height="127" fill="black">
<rect fill="white" x="179" y="1" width="135" height="127"/>
<path d="M245.24 120L302 64.5L245.24 9L234.74 9.00003V16.5L284 64.5L228 120L245.24 120Z"/>
<path d="M254 9.00003H268.5L207.5 120H193L254 9.00003Z"/>
</mask>
<path d="M245.24 120L302 64.5L245.24 9L234.74 9.00003V16.5L284 64.5L228 120L245.24 120Z" fill="#527AF8"/>
<path d="M254 9.00003H268.5L207.5 120H193L254 9.00003Z" fill="#527AF8"/>
<path d="M245.24 120L302 64.5L245.24 9L234.74 9.00003V16.5L284 64.5L228 120L245.24 120Z" stroke="#0E2F73" stroke-width="16" mask="url(#path-1-outside-1_13_75)"/>
<path d="M254 9.00003H268.5L207.5 120H193L254 9.00003Z" stroke="#0E2F73" stroke-width="16" mask="url(#path-1-outside-1_13_75)"/>
<mask id="path-2-outside-2_13_75" maskUnits="userSpaceOnUse" x="0" y="0" width="224" height="128" fill="black">
<rect fill="white" width="224" height="128"/>
<path d="M11 120L20.0441 91L41.8694 99.335L74.8837 100.267L75.4003 80.594L35.3667 68.6226C33.2738 68.0308 30.8322 67.1925 28.0417 66.1076C25.3011 65.0227 22.6352 63.4693 20.0441 61.4474C17.4529 59.4255 15.2853 56.7625 13.5413 53.4585C11.8471 50.1051 11 45.8887 11 40.8093C11 33.6587 12.8188 27.7163 16.4563 22.9822C20.0939 18.248 24.9523 14.722 31.0315 12.4042C37.1107 10.0865 43.8377 8.95223 51.2125 9.00155C58.6371 9.10017 95.8605 9 95.8605 9V43.3273L75.4003 43.3273V27.7903H50.9135C47.7244 27.6917 44.7097 28.1355 41.8694 29.1218C39.079 30.0588 36.7868 31.4396 34.993 33.2642C33.2489 35.0888 32.3769 37.2587 32.3769 39.7737C32.3769 42.0915 33.0994 43.9901 34.5445 45.4695C35.9895 46.8996 37.8083 48.0585 40.0008 48.9462C42.1933 49.8338 46.7278 51.1653 46.7278 51.1653L95.8605 66.2122V120H11Z"/>
<path d="M130.186 120V117.379L180.787 28.5792H134.625V9H216V11.6208L165.695 100.267H175.953L185.5 98L173.093 120H130.186Z"/>
<path d="M74.8837 120V9H95.8459L129.51 72.3424V9H151.163V120H129.51L95.8459 57.8641V120H74.8837Z"/>
</mask>
<path d="M11 120L20.0441 91L41.8694 99.335L74.8837 100.267L75.4003 80.594L35.3667 68.6226C33.2738 68.0308 30.8322 67.1925 28.0417 66.1076C25.3011 65.0227 22.6352 63.4693 20.0441 61.4474C17.4529 59.4255 15.2853 56.7625 13.5413 53.4585C11.8471 50.1051 11 45.8887 11 40.8093C11 33.6587 12.8188 27.7163 16.4563 22.9822C20.0939 18.248 24.9523 14.722 31.0315 12.4042C37.1107 10.0865 43.8377 8.95223 51.2125 9.00155C58.6371 9.10017 95.8605 9 95.8605 9V43.3273L75.4003 43.3273V27.7903H50.9135C47.7244 27.6917 44.7097 28.1355 41.8694 29.1218C39.079 30.0588 36.7868 31.4396 34.993 33.2642C33.2489 35.0888 32.3769 37.2587 32.3769 39.7737C32.3769 42.0915 33.0994 43.9901 34.5445 45.4695C35.9895 46.8996 37.8083 48.0585 40.0008 48.9462C42.1933 49.8338 46.7278 51.1653 46.7278 51.1653L95.8605 66.2122V120H11Z" fill="#CDE4FF"/>
<path d="M130.186 120V117.379L180.787 28.5792H134.625V9H216V11.6208L165.695 100.267H175.953L185.5 98L173.093 120H130.186Z" fill="#CDE4FF"/>
<path d="M74.8837 120V9H95.8459L129.51 72.3424V9H151.163V120H129.51L95.8459 57.8641V120H74.8837Z" fill="#CDE4FF"/>
<path d="M11 120L20.0441 91L41.8694 99.335L74.8837 100.267L75.4003 80.594L35.3667 68.6226C33.2738 68.0308 30.8322 67.1925 28.0417 66.1076C25.3011 65.0227 22.6352 63.4693 20.0441 61.4474C17.4529 59.4255 15.2853 56.7625 13.5413 53.4585C11.8471 50.1051 11 45.8887 11 40.8093C11 33.6587 12.8188 27.7163 16.4563 22.9822C20.0939 18.248 24.9523 14.722 31.0315 12.4042C37.1107 10.0865 43.8377 8.95223 51.2125 9.00155C58.6371 9.10017 95.8605 9 95.8605 9V43.3273L75.4003 43.3273V27.7903H50.9135C47.7244 27.6917 44.7097 28.1355 41.8694 29.1218C39.079 30.0588 36.7868 31.4396 34.993 33.2642C33.2489 35.0888 32.3769 37.2587 32.3769 39.7737C32.3769 42.0915 33.0994 43.9901 34.5445 45.4695C35.9895 46.8996 37.8083 48.0585 40.0008 48.9462C42.1933 49.8338 46.7278 51.1653 46.7278 51.1653L95.8605 66.2122V120H11Z" stroke="#527AF8" stroke-width="16" mask="url(#path-2-outside-2_13_75)"/>
<path d="M130.186 120V117.379L180.787 28.5792H134.625V9H216V11.6208L165.695 100.267H175.953L185.5 98L173.093 120H130.186Z" stroke="#527AF8" stroke-width="16" mask="url(#path-2-outside-2_13_75)"/>
<path d="M74.8837 120V9H95.8459L129.51 72.3424V9H151.163V120H129.51L95.8459 57.8641V120H74.8837Z" stroke="#527AF8" stroke-width="16" mask="url(#path-2-outside-2_13_75)"/>
</svg>
