<svg width="60" height="34" viewBox="0 0 60 34" fill="none" xmlns="http://www.w3.org/2000/svg">
<mask id="mask0_93_643" style="mask-type:luminance" maskUnits="userSpaceOnUse" x="1" y="1" width="58" height="32">
<path fill-rule="evenodd" clip-rule="evenodd" d="M1.19922 17.0006C1.19922 25.3725 14.0937 32.1594 29.9993 32.1594C45.9048 32.1594 58.7994 25.3725 58.7994 17.0006C58.7994 8.62875 45.9048 1.84174 29.9993 1.84174C14.0937 1.84174 1.19922 8.62875 1.19922 17.0006Z" fill="white"/>
</mask>
<g mask="url(#mask0_93_643)">
<path fill-rule="evenodd" clip-rule="evenodd" d="M1.19922 17.0006C1.19922 25.3725 14.0937 32.1594 29.9993 32.1594C45.9048 32.1594 58.7994 25.3725 58.7994 17.0006C58.7994 8.62875 45.9048 1.84174 29.9993 1.84174C14.0937 1.84174 1.19922 8.62875 1.19922 17.0006Z" fill="url(#paint0_radial_93_643)"/>
</g>
<mask id="mask1_93_643" style="mask-type:luminance" maskUnits="userSpaceOnUse" x="0" y="0" width="60" height="34">
<path fill-rule="evenodd" clip-rule="evenodd" d="M0 0.115089H60V33.8849H0V0.115089Z" fill="white"/>
</mask>
<g mask="url(#mask1_93_643)">
<path fill-rule="evenodd" clip-rule="evenodd" d="M29.9987 31.0329C45.283 31.0329 57.6737 24.7499 57.6737 16.9995C57.6737 9.24926 45.283 2.9662 29.9987 2.9662C14.7145 2.9662 2.32373 9.24926 2.32373 16.9995C2.32373 24.7499 14.7145 31.0329 29.9987 31.0329Z" fill="#777BB3"/>
</g>
<mask id="mask2_93_643" style="mask-type:luminance" maskUnits="userSpaceOnUse" x="0" y="0" width="60" height="34">
<path fill-rule="evenodd" clip-rule="evenodd" d="M0 0.115089H60V33.8849H0V0.115089Z" fill="white"/>
</mask>
<g mask="url(#mask2_93_643)">
<path fill-rule="evenodd" clip-rule="evenodd" d="M10.0387 25.688C10.0979 25.7601 10.1865 25.8018 10.2797 25.8018H13.5871C13.7367 25.8018 13.8652 25.6957 13.8938 25.5488L14.6292 21.763H17.2044C18.4822 21.763 19.5528 21.6252 20.3865 21.3534C21.2335 21.0781 22.0135 20.6101 22.7027 19.9647C23.2784 19.4352 23.7519 18.8416 24.1101 18.2001C24.4679 17.5593 24.7252 16.8436 24.8748 16.0729C25.2424 14.1812 24.9521 12.6761 24.012 11.5993C23.0769 10.5281 21.5892 9.9851 19.5904 9.9851H13.2306C13.081 9.9851 12.9524 10.0912 12.9239 10.2381L9.97303 25.4295C9.95522 25.5211 9.97928 25.616 10.0387 25.688ZM19.6351 18.051C19.0415 18.5082 18.1032 18.7401 16.8465 18.7401H15.2139L16.3273 13.0075H18.3357C19.4941 13.0075 20.2614 13.207 20.6163 13.6003C20.9633 13.9855 21.0389 14.6991 20.8406 15.7212C20.628 16.8147 20.2224 17.5986 19.6351 18.051Z" fill="black"/>
<path fill-rule="evenodd" clip-rule="evenodd" d="M13.2291 9.67184H19.589C21.6819 9.67184 23.2487 10.2509 24.2458 11.3931C25.2527 12.5463 25.5671 14.1408 25.1801 16.1319C25.0242 16.9353 24.7554 17.6824 24.3813 18.3522C24.0074 19.0219 23.5139 19.641 22.9147 20.1926C22.1902 20.8705 21.3717 21.3609 20.482 21.6501C19.6169 21.9321 18.5135 22.0751 17.2029 22.0751H14.8853L14.1991 25.6079C14.142 25.9017 13.8848 26.114 13.5855 26.114H10.2783C10.0916 26.114 9.91471 26.0306 9.79596 25.8864C9.67732 25.7423 9.62919 25.5527 9.66482 25.3693L12.6156 10.1779C12.6727 9.88405 12.9299 9.67184 13.2291 9.67184ZM18.3369 13.3206H16.5861L15.5941 18.4278H16.8477C18.0338 18.4278 18.908 18.2179 19.4457 17.8036C19.9709 17.399 20.3374 16.6785 20.5351 15.6623C20.711 14.7545 20.6593 14.1142 20.3856 13.8104C20.2206 13.6275 19.735 13.3206 18.3369 13.3206ZM14.8348 19.0522H16.8465C18.18 19.0522 19.1732 18.8009 19.8258 18.2982C20.4785 17.7954 20.9187 16.9563 21.1475 15.7804C21.3663 14.6514 21.2666 13.8547 20.8484 13.3905C20.4297 12.9264 19.5923 12.6943 18.3358 12.6943H16.0698L14.8348 19.0522ZM23.7743 11.803C22.897 10.7982 21.5013 10.2958 19.5881 10.2958H13.2282L10.2773 25.4871H13.5846L14.3691 21.4483H17.202C18.452 21.4483 19.4802 21.3173 20.2875 21.0541C21.0948 20.7916 21.8285 20.351 22.4889 19.7326C23.0431 19.2228 23.4915 18.6606 23.8349 18.0457C24.1779 17.4313 24.4216 16.7531 24.5657 16.0113C24.9157 14.2105 24.6515 12.8079 23.7743 11.803Z" fill="white"/>
<path fill-rule="evenodd" clip-rule="evenodd" d="M32.4579 21.7623C32.3645 21.7623 32.2761 21.7206 32.2168 21.6485C32.1573 21.5765 32.1333 21.4817 32.1511 21.39L33.4564 14.6684C33.5806 14.0292 33.5499 13.5704 33.3702 13.3765C33.2603 13.258 32.9298 13.0592 31.9529 13.0592H29.5881L27.9469 21.5093C27.9184 21.6562 27.7897 21.7623 27.6402 21.7623H24.3589C24.2656 21.7623 24.1771 21.7206 24.1178 21.6485C24.0584 21.5765 24.0343 21.4816 24.0521 21.39L27.003 6.19857C27.0315 6.05171 27.1602 5.94561 27.3097 5.94561H30.591C30.6843 5.94561 30.7728 5.9873 30.8321 6.05932C30.8915 6.13145 30.9156 6.22619 30.8978 6.31791L30.1857 9.98448H32.7296C34.6676 9.98448 35.9818 10.3263 36.7472 11.0297C37.5274 11.7472 37.7709 12.8944 37.4709 14.4399L36.098 21.5093C36.0694 21.6562 35.9409 21.7623 35.7912 21.7623H32.4579Z" fill="black"/>
<path fill-rule="evenodd" clip-rule="evenodd" d="M27.3088 5.63315H30.59C30.7767 5.63315 30.9536 5.71663 31.0723 5.86078C31.1911 6.00482 31.2391 6.19452 31.2035 6.37786L30.5637 9.67202H32.7286C34.7485 9.67202 36.1319 10.0409 36.9577 10.7998C37.8231 11.5957 38.0987 12.8405 37.7766 14.4999L36.4037 21.5692C36.3467 21.863 36.0894 22.0753 35.7902 22.0753H32.4569C32.2702 22.0753 32.0933 21.9919 31.9746 21.8477C31.8558 21.7036 31.8077 21.514 31.8433 21.3306L33.1486 14.609C33.2771 13.9482 33.1993 13.6532 33.1401 13.5896C33.1319 13.5806 32.9272 13.3721 31.9519 13.3721H29.8447L28.2527 21.5692C28.1956 21.863 27.9384 22.0753 27.6392 22.0753H24.3579C24.1713 22.0753 23.9944 21.9919 23.8757 21.8477C23.7569 21.7036 23.7088 21.514 23.7444 21.3306L26.6952 6.13918C26.7523 5.84535 27.0095 5.63315 27.3088 5.63315ZM29.8044 10.2975L30.5889 6.25868H27.3077L24.3568 21.45H27.6381L29.3283 12.7469H31.9508C32.7903 12.7469 33.3391 12.8862 33.5971 13.1643C33.855 13.4423 33.9096 13.9639 33.7611 14.7285L32.4558 21.45H35.7891L37.162 14.3808C37.4411 12.9428 37.2319 11.9025 36.5337 11.2604C35.8355 10.6188 34.5668 10.2975 32.7275 10.2975H29.8044Z" fill="white"/>
<path fill-rule="evenodd" clip-rule="evenodd" d="M35.8512 25.688C35.9105 25.7601 35.9991 25.8018 36.0923 25.8018H39.3996C39.5493 25.8018 39.6778 25.6957 39.7064 25.5488L40.4415 21.763H43.0169C44.2947 21.763 45.3653 21.6252 46.1989 21.3534C47.046 21.0781 47.826 20.6101 48.5152 19.9647C49.0909 19.4352 49.5643 18.8416 49.9226 18.2001C50.2804 17.5593 50.5376 16.8436 50.6874 16.0729C51.0549 14.1811 50.7646 12.676 49.8245 11.5993C48.8893 10.5281 47.4017 9.9851 45.4029 9.9851H39.0432C38.8935 9.9851 38.765 10.0912 38.7363 10.2381L35.7855 25.4295C35.7677 25.5211 35.7919 25.616 35.8512 25.688ZM45.4492 18.051C44.8555 18.5082 43.9173 18.7401 42.6605 18.7401H41.0279L42.1414 13.0075H44.1498C45.3081 13.0075 46.0754 13.207 46.4303 13.6003C46.7775 13.9855 46.853 14.6991 46.6548 15.7212C46.4421 16.8148 46.0365 17.5987 45.4492 18.051Z" fill="black"/>
<path fill-rule="evenodd" clip-rule="evenodd" d="M39.0445 9.67184H45.4043C47.4973 9.67184 49.0641 10.2509 50.0612 11.393C51.068 12.5462 51.3824 14.1407 50.9954 16.1319C50.8395 16.9353 50.5707 17.6824 50.1967 18.3522C49.8227 19.0219 49.3294 19.6409 48.7302 20.1924C48.0057 20.8704 47.187 21.3609 46.2973 21.6501C45.4322 21.9321 44.3289 22.0751 43.0183 22.0751H40.7007L40.0145 25.6079C39.9574 25.9017 39.7001 26.114 39.401 26.114H36.0937C35.907 26.114 35.7301 26.0306 35.6114 25.8864C35.4927 25.7423 35.4446 25.5527 35.4802 25.3693L38.4311 10.1779C38.4882 9.88405 38.7453 9.67184 39.0445 9.67184ZM44.1503 13.3206H42.3995L41.4076 18.4278H42.6611C43.8472 18.4278 44.7214 18.2179 45.2591 17.8036C45.7842 17.399 46.1507 16.6785 46.3484 15.6622C46.5245 14.7545 46.4728 14.1142 46.199 13.8104C46.034 13.6275 45.5483 13.3206 44.1503 13.3206ZM40.65 19.0522H42.6617C43.9951 19.0522 44.9883 18.8009 45.6409 18.2982C46.2937 17.7954 46.7338 16.9563 46.9626 15.7804C47.1815 14.6514 47.0819 13.8547 46.6635 13.3905C46.2448 12.9264 45.4074 12.6943 44.1509 12.6943H41.8849L40.65 19.0522ZM49.5894 11.803C48.7121 10.7982 47.3164 10.2958 45.4032 10.2958H39.0434L36.0926 25.4871H39.3999L40.1842 21.4483H43.0171C44.2671 21.4483 45.2954 21.3173 46.1027 21.0541C46.9099 20.7916 47.6436 20.351 48.304 19.7326C48.8582 19.2228 49.3066 18.6606 49.65 18.0457C49.9931 17.4313 50.2367 16.7531 50.3808 16.0113C50.7308 14.2105 50.4667 12.8079 49.5894 11.803Z" fill="white"/>
</g>
<defs>
<radialGradient id="paint0_radial_93_643" cx="0" cy="0" r="1" gradientUnits="userSpaceOnUse" gradientTransform="translate(18.4909 7.17111) scale(37.8186 19.9173)">
<stop stop-color="#AEB2D5"/>
<stop offset="0.3" stop-color="#AEB2D5"/>
<stop offset="0.75" stop-color="#484C89"/>
<stop offset="1" stop-color="#484C89"/>
</radialGradient>
</defs>
</svg>
