<svg width="56" height="34" viewBox="0 0 56 34" fill="none" xmlns="http://www.w3.org/2000/svg">
<mask id="mask0_93_610" style="mask-type:luminance" maskUnits="userSpaceOnUse" x="0" y="0" width="56" height="34">
<path fill-rule="evenodd" clip-rule="evenodd" d="M0 0.208252H56V33.7917H0V0.208252Z" fill="white"/>
</mask>
<g mask="url(#mask0_93_610)">
<path fill-rule="evenodd" clip-rule="evenodd" d="M27.9996 0.208252C20.5329 0.208252 15.8663 3.93976 13.9996 11.4028C16.7996 7.67126 20.0663 6.27195 23.7996 7.20483C25.9297 7.73657 27.452 9.28203 29.1372 10.9913C31.8823 13.7764 35.0597 17 41.9996 17C49.4663 17 54.1329 13.2685 55.9996 5.80551C53.1996 9.53702 49.9329 10.9363 46.1996 10.0035C44.0695 9.47172 42.5472 7.92625 40.862 6.21701C38.1169 3.43186 34.9395 0.208252 27.9996 0.208252ZM14 17.0008C6.53333 17.0008 1.86667 20.7323 0 28.1953C2.8 24.4638 6.06666 23.0645 9.8 23.9974C11.9301 24.5302 13.4524 26.0746 15.1376 27.7838C17.8827 30.569 21.0601 33.7926 28 33.7926C35.4667 33.7926 40.1333 30.0611 42 22.5981C39.2 26.3296 35.9333 27.7289 32.2 26.796C30.0699 26.2643 28.5475 24.7188 26.8624 23.0096C24.1173 20.2244 20.9398 17.0008 14 17.0008Z" fill="#38BDF8"/>
</g>
</svg>
