<svg width="843" height="524" viewBox="0 0 843 524" fill="none" xmlns="http://www.w3.org/2000/svg">
<mask id="path-1-inside-1_280_441" fill="white">
<path fill-rule="evenodd" clip-rule="evenodd" d="M387.814 84C414.158 84 437.025 98.3538 448.465 119.394C458.653 112.323 470.939 107.887 484.25 107.119V49C484.25 12.5492 514.89 -17 552.687 -17H964.351C1002.15 -17 1032.79 12.5492 1032.79 49V245H1082.56C1120.36 245 1151 274.549 1151 311V543C1151 579.451 1120.36 609 1082.56 609H488.397C450.6 609 419.959 579.451 419.959 543V520.216C407.435 533.593 389.31 542 369.15 542H296.564C262.653 542 234.503 518.215 229.072 487H152.43C114.633 487 83.9919 457.451 83.9919 421V323C83.9919 315.286 85.3643 307.881 87.8862 301H68.4379C30.6407 301 0 271.451 0 235V150C0 113.549 30.6406 84 68.4379 84H387.814ZM552.687 -14H964.351C1000.43 -14 1029.68 14.2061 1029.68 49V245H629.421V173C629.421 136.549 598.78 107 560.983 107H488.397C488.051 107 487.705 107.002 487.36 107.007V49C487.36 14.2061 516.608 -14 552.687 -14ZM1029.68 248H629.421V257H640.827C678.624 257 709.265 286.549 709.265 323V369H964.351C1000.43 369 1029.68 340.794 1029.68 306V248ZM709.265 372H964.351C1002.15 372 1032.79 342.451 1032.79 306V248H1082.56C1118.64 248 1147.89 276.206 1147.89 311V543C1147.89 577.794 1118.64 606 1082.56 606H488.397C452.318 606 423.07 577.794 423.07 543V516.649C430.613 507.357 435.629 496.066 437.122 483.738C464.485 475.099 484.25 450.275 484.25 421V398.999C484.042 399 483.833 399 483.625 399H481.139V421C481.139 448.486 462.887 471.861 437.433 480.468C437.535 478.991 437.587 477.501 437.587 476V399H434.477V476C434.477 477.839 434.395 479.661 434.235 481.46C430.633 482.479 426.901 483.207 423.07 483.615V399H419.959V483.875C418.588 483.958 417.205 484 415.812 484H231.759C231.414 481.38 231.237 478.71 231.237 476V399H228.126V476C228.126 478.708 228.295 481.378 228.624 484H152.43C116.351 484 87.1027 455.794 87.1027 421V323C87.1027 315.262 88.5494 307.849 91.1964 301H101V298H92.4482C94.5935 293.22 97.7523 288.579 101 284.5V279C96.2169 284.348 91.8915 291.362 89.0723 298H68.4379C32.3588 298 3.11084 269.794 3.11084 235V150C3.11084 115.206 32.3588 87 68.4379 87H387.814C413.145 87 435.108 100.903 445.946 121.228C444.782 122.117 443.649 123.041 442.548 124H447.333L447.335 123.998L447.336 124H450.737C450.456 123.368 450.165 122.742 449.865 122.121C459.623 115.236 471.435 110.899 484.25 110.125V124.001C485.289 124.006 486.326 124.022 487.36 124.05V110.008C487.705 110.003 488.051 110 488.397 110H560.983C597.062 110 626.31 138.206 626.31 173V245H621.02C621.139 245.997 621.248 246.997 621.346 248H626.31V257H621.928C621.96 257.997 621.981 258.997 621.992 260H626.31V271C626.31 285.689 622.087 298.897 613.348 309.611C612.316 312.355 611.092 315.343 609.893 318C622.493 306.03 629.421 289.405 629.421 271V260H640.827C676.906 260 706.154 288.206 706.154 323V369H570.24C568.96 370.023 567.661 371.023 566.344 372H706.154V421C706.154 455.794 676.906 484 640.827 484H568.241C532.162 484 502.914 455.794 502.914 421V397.778C501.881 397.923 500.844 398.036 499.804 398.158V421C499.804 457.451 530.444 487 568.241 487H640.827C678.624 487 709.265 457.451 709.265 421V372ZM433.862 484.68C432.449 494.562 428.661 503.712 423.07 511.577V486.633C426.763 486.258 430.368 485.599 433.862 484.68ZM419.959 486.881V515.601C407.983 529.874 389.671 539 369.15 539H296.564C264.376 539 237.625 516.55 232.229 487H415.812C417.204 487 418.587 486.96 419.959 486.881Z"/>
<path d="M622 261.5C622 185.561 560.439 124 484.5 124H187.906C139.909 124 101 162.909 101 210.906V399H484.5C560.439 399 622 337.439 622 261.5Z"/>
</mask>
<path fill-rule="evenodd" clip-rule="evenodd" d="M387.814 84C414.158 84 437.025 98.3538 448.465 119.394C458.653 112.323 470.939 107.887 484.25 107.119V49C484.25 12.5492 514.89 -17 552.687 -17H964.351C1002.15 -17 1032.79 12.5492 1032.79 49V245H1082.56C1120.36 245 1151 274.549 1151 311V543C1151 579.451 1120.36 609 1082.56 609H488.397C450.6 609 419.959 579.451 419.959 543V520.216C407.435 533.593 389.31 542 369.15 542H296.564C262.653 542 234.503 518.215 229.072 487H152.43C114.633 487 83.9919 457.451 83.9919 421V323C83.9919 315.286 85.3643 307.881 87.8862 301H68.4379C30.6407 301 0 271.451 0 235V150C0 113.549 30.6406 84 68.4379 84H387.814ZM552.687 -14H964.351C1000.43 -14 1029.68 14.2061 1029.68 49V245H629.421V173C629.421 136.549 598.78 107 560.983 107H488.397C488.051 107 487.705 107.002 487.36 107.007V49C487.36 14.2061 516.608 -14 552.687 -14ZM1029.68 248H629.421V257H640.827C678.624 257 709.265 286.549 709.265 323V369H964.351C1000.43 369 1029.68 340.794 1029.68 306V248ZM709.265 372H964.351C1002.15 372 1032.79 342.451 1032.79 306V248H1082.56C1118.64 248 1147.89 276.206 1147.89 311V543C1147.89 577.794 1118.64 606 1082.56 606H488.397C452.318 606 423.07 577.794 423.07 543V516.649C430.613 507.357 435.629 496.066 437.122 483.738C464.485 475.099 484.25 450.275 484.25 421V398.999C484.042 399 483.833 399 483.625 399H481.139V421C481.139 448.486 462.887 471.861 437.433 480.468C437.535 478.991 437.587 477.501 437.587 476V399H434.477V476C434.477 477.839 434.395 479.661 434.235 481.46C430.633 482.479 426.901 483.207 423.07 483.615V399H419.959V483.875C418.588 483.958 417.205 484 415.812 484H231.759C231.414 481.38 231.237 478.71 231.237 476V399H228.126V476C228.126 478.708 228.295 481.378 228.624 484H152.43C116.351 484 87.1027 455.794 87.1027 421V323C87.1027 315.262 88.5494 307.849 91.1964 301H101V298H92.4482C94.5935 293.22 97.7523 288.579 101 284.5V279C96.2169 284.348 91.8915 291.362 89.0723 298H68.4379C32.3588 298 3.11084 269.794 3.11084 235V150C3.11084 115.206 32.3588 87 68.4379 87H387.814C413.145 87 435.108 100.903 445.946 121.228C444.782 122.117 443.649 123.041 442.548 124H447.333L447.335 123.998L447.336 124H450.737C450.456 123.368 450.165 122.742 449.865 122.121C459.623 115.236 471.435 110.899 484.25 110.125V124.001C485.289 124.006 486.326 124.022 487.36 124.05V110.008C487.705 110.003 488.051 110 488.397 110H560.983C597.062 110 626.31 138.206 626.31 173V245H621.02C621.139 245.997 621.248 246.997 621.346 248H626.31V257H621.928C621.96 257.997 621.981 258.997 621.992 260H626.31V271C626.31 285.689 622.087 298.897 613.348 309.611C612.316 312.355 611.092 315.343 609.893 318C622.493 306.03 629.421 289.405 629.421 271V260H640.827C676.906 260 706.154 288.206 706.154 323V369H570.24C568.96 370.023 567.661 371.023 566.344 372H706.154V421C706.154 455.794 676.906 484 640.827 484H568.241C532.162 484 502.914 455.794 502.914 421V397.778C501.881 397.923 500.844 398.036 499.804 398.158V421C499.804 457.451 530.444 487 568.241 487H640.827C678.624 487 709.265 457.451 709.265 421V372ZM433.862 484.68C432.449 494.562 428.661 503.712 423.07 511.577V486.633C426.763 486.258 430.368 485.599 433.862 484.68ZM419.959 486.881V515.601C407.983 529.874 389.671 539 369.15 539H296.564C264.376 539 237.625 516.55 232.229 487H415.812C417.204 487 418.587 486.96 419.959 486.881Z" stroke="url(#paint0_radial_280_441)" stroke-width="6" mask="url(#path-1-inside-1_280_441)"/>
<path d="M622 261.5C622 185.561 560.439 124 484.5 124H187.906C139.909 124 101 162.909 101 210.906V399H484.5C560.439 399 622 337.439 622 261.5Z" stroke="url(#paint1_radial_280_441)" stroke-width="6" mask="url(#path-1-inside-1_280_441)"/>
<defs>
<radialGradient id="paint0_radial_280_441" cx="0" cy="0" r="1" gradientUnits="userSpaceOnUse" gradientTransform="translate(539 284) rotate(46.5746) scale(373.14 470.373)">
<stop offset="0.0528229" stop-color="#EA76CB"/>
<stop offset="0.6" stop-color="#8839EF"/>
<stop offset="1" stop-color="#80262E" stop-opacity="0"/>
</radialGradient>
<radialGradient id="paint1_radial_280_441" cx="0" cy="0" r="1" gradientUnits="userSpaceOnUse" gradientTransform="translate(539 284) rotate(46.5746) scale(373.14 470.373)">
<stop offset="0.0528229" stop-color="#EA76CB"/>
<stop offset="0.6" stop-color="#8839EF"/>
<stop offset="1" stop-color="#80262E" stop-opacity="0"/>
</radialGradient>
</defs>
</svg>
