<svg width="46" height="46" viewBox="0 0 46 46" fill="none" xmlns="http://www.w3.org/2000/svg">
<path fill-rule="evenodd" clip-rule="evenodd" d="M3.26953 22.9995C3.26953 30.8094 7.80807 37.5587 14.3893 40.7571L4.97773 14.9696C3.88298 17.4235 3.26953 20.139 3.26953 22.9995L3.26953 22.9995Z" fill="#21759B"/>
<path fill-rule="evenodd" clip-rule="evenodd" d="M36.3191 22.0039C36.3191 19.5654 35.4432 17.8766 34.692 16.5622C33.6918 14.937 32.7544 13.5606 32.7544 11.9353C32.7544 10.1216 34.13 8.43321 36.0676 8.43321C36.155 8.43321 36.238 8.4441 36.3232 8.44898C32.813 5.23296 28.1363 3.26941 22.9997 3.26941C16.1068 3.26941 10.0425 6.80605 6.51465 12.1628C6.97755 12.1767 7.4138 12.1865 7.78434 12.1865C9.84807 12.1865 13.0426 11.9361 13.0426 11.9361C14.1062 11.8734 14.2316 13.4356 13.1691 13.5613C13.1691 13.5613 12.1003 13.6871 10.9109 13.7494L18.0958 35.1213L22.4136 22.1713L19.3396 13.7487C18.2772 13.6864 17.2706 13.5606 17.2706 13.5606C16.2074 13.4983 16.3321 11.8726 17.3953 11.9353C17.3953 11.9353 20.6536 12.1857 22.5923 12.1857C24.6557 12.1857 27.8506 11.9353 27.8506 11.9353C28.9149 11.8726 29.0399 13.4348 27.9771 13.5606C27.9771 13.5606 26.906 13.6864 25.7189 13.7487L32.849 34.9588L34.817 28.3822C35.67 25.6531 36.3191 23.693 36.3191 22.0039Z" fill="#21759B"/>
<path fill-rule="evenodd" clip-rule="evenodd" d="M23.3455 24.7254L17.4258 41.9276C19.1933 42.4472 21.0625 42.7314 22.9994 42.7314C25.297 42.7314 27.5004 42.3342 29.5513 41.613C29.4984 41.5285 29.4504 41.4388 29.4109 41.3412L23.3455 24.7254Z" fill="#21759B"/>
<path fill-rule="evenodd" clip-rule="evenodd" d="M40.312 13.5331C40.3969 14.1616 40.4449 14.8362 40.4449 15.562C40.4449 17.5642 40.071 19.8149 38.9447 22.6292L32.918 40.0545C38.7836 36.6339 42.729 30.2788 42.729 22.9998C42.7294 19.5694 41.8531 16.3436 40.312 13.5331L40.312 13.5331Z" fill="#21759B"/>
<path fill-rule="evenodd" clip-rule="evenodd" d="M0 22.9994C0 10.3175 10.3179 0 22.9994 0C35.6806 0 45.9996 10.3175 46 22.9994C46 35.6829 35.6806 46 22.9994 46C10.3179 46 0 35.6829 0 22.9994ZM1.05444 22.9995C1.05444 35.1007 10.8993 44.9458 22.9993 44.9458C35.0989 44.9458 44.943 35.1007 44.943 22.9995C44.943 10.8991 35.0989 1.05464 22.9993 1.05464C10.8989 1.05464 1.05444 10.8991 1.05444 22.9995Z" fill="#21759B"/>
</svg>
